<?xml version="1.0" encoding="UTF-8"?>
<svg width="70" height="70" xmlns="http://www.w3.org/2000/svg" xmlns:svg="http://www.w3.org/2000/svg">

 <g>
  <title>Layer 1</title>
  <g id="svg_1">
   <circle id="svg_2" r="34.608002" cy="34.683594" cx="35" fill="#6d83ff"/>
   <path id="svg_3" d="m35,70c-19.299,0 -35,-15.701 -35,-35c0,-19.299 15.701,-35 35,-35c19.299999,0 35,15.701 35,35c0,19.299 -15.701,35 -35,35zm0,-69.226c-18.867001,0 -34.217,15.354 -34.217,34.226c0,18.872002 15.349999,34.225998 34.216001,34.225998c18.867001,0 34.215996,-15.353996 34.215996,-34.225998c0,-18.872 -15.347996,-34.226 -34.214996,-34.226z" fill="#D1D1D1"/>
  </g>
  <g id="svg_4">
   <g id="svg_5">
    <path id="svg_6" d="m33.639999,16.239868l0,2.743042c-7.908998,0.645996 -14.226999,6.87793 -14.882999,14.675903l-2.788,0l0,2.68103l2.788,0c0.658001,7.795044 6.976,14.024048 14.882999,14.671997l0,2.748047l2.719002,0l0,-2.748047c7.906998,-0.647949 14.223999,-6.876953 14.883999,-14.671997l2.786999,0l0,-2.68103l-2.786999,0c-0.657001,-7.797974 -6.973999,-14.029907 -14.883999,-14.675903l0,-2.743042l-2.719002,0zm1.360001,5.359985c7.523998,0 13.592999,5.983032 13.592999,13.400024c0,7.415039 -6.069,13.398926 -13.592999,13.398926s-13.593,-5.983887 -13.593,-13.398926c0,-7.416016 6.069,-13.400024 13.593,-13.400024zm0,5.359985c-4.488001,0 -8.156,3.616943 -8.156,8.041016s3.667999,8.037964 8.156,8.037964s8.155998,-3.614014 8.155998,-8.037964s-3.668999,-8.041016 -8.155998,-8.041016zm0,2.679932c3.019001,0 5.438,2.384033 5.438,5.360962c0,2.976074 -2.418999,5.359985 -5.438,5.359985s-5.438,-2.383911 -5.438,-5.359985c0,-2.976929 2.419001,-5.360962 5.438,-5.360962z" fill="#ffffff"/>
   </g>
  </g>
 </g>
</svg>