<?xml version="1.0" encoding="utf-8"?>
<!-- Generator: Adobe Illustrator 16.0.0, SVG Export Plug-In . SVG Version: 6.00 Build 0)  -->
<!DOCTYPE svg PUBLIC "-//W3C//DTD SVG 1.1//EN" "http://www.w3.org/Graphics/SVG/1.1/DTD/svg11.dtd">
<svg xmlns:xlink="http://www.w3.org/1999/xlink" version="1.1" id="Layer_1" xmlns="http://www.w3.org/2000/svg" x="0px" y="0px"
	 width="49.987px" height="50px" viewBox="0 0 49.987 50" enable-background="new 0 0 49.987 50" xml:space="preserve">
<g>
	<g>
		<circle fill="#3F3F3F" cx="24.987" cy="25" r="25"/>
	</g>
	<path fill="#FFCE00" d="M39.985,18.455c-0.041-0.748-1.301-1.046-2.628-1.026c-0.188,0.003-0.331,0.164-0.321,0.352l0.062,1.12
		l-0.631,0.035c-1.406-2.375-2.848-4.26-3.312-4.473c-0.993-0.454-3.403-0.681-8.168-0.681c-4.765,0-7.175,0.227-8.168,0.681
		c-0.464,0.212-1.906,2.099-3.312,4.473L12.875,18.9l0.062-1.12c0.01-0.188-0.133-0.349-0.321-0.352
		c-1.326-0.02-2.586,0.279-2.628,1.026c-0.028,0.492,0.392,1.272,1.503,1.334l1.479,0.083c-1.395,2.508-2.618,5.361-2.618,7.334
		v6.159c0,0.469,0.381,0.852,0.851,0.852h2.825c0.47,0,0.851-0.383,0.851-0.852v-1.859h20.218v1.859
		c0,0.469,0.381,0.852,0.851,0.852h2.825c0.47,0,0.851-0.383,0.851-0.852v-6.159c0-1.974-1.224-4.826-2.618-7.334l1.479-0.083
		C39.595,19.728,40.014,18.947,39.985,18.455z M17.291,15.371c1.354-0.568,6.118-0.568,7.697-0.568c1.578,0,6.344,0,7.697,0.568
		c0.393,0.316,1.767,2.088,3.193,4.583H14.096C15.524,17.459,16.896,15.687,17.291,15.371z M18.312,26.212l-4.792-0.621
		c-0.401-0.052-0.725-0.421-0.725-0.824v-0.701c0-0.404,0.328-0.752,0.731-0.742c1.295,0.033,3.969,0.352,5.188,2.326
		C18.926,25.995,18.713,26.263,18.312,26.212z M37.179,24.066v0.701c0,0.403-0.324,0.772-0.725,0.824l-4.793,0.621
		c-0.398,0.051-0.613-0.218-0.4-0.562c1.219-1.975,3.894-2.293,5.188-2.327C36.852,23.312,37.179,23.662,37.179,24.066z"/>
</g>
</svg>
