<?xml version="1.0" encoding="utf-8"?>
<!-- Generator: Adobe Illustrator 16.0.0, SVG Export Plug-In . SVG Version: 6.00 Build 0)  -->
<!DOCTYPE svg PUBLIC "-//W3C//DTD SVG 1.1//EN" "http://www.w3.org/Graphics/SVG/1.1/DTD/svg11.dtd">
<svg xmlns:xlink="http://www.w3.org/1999/xlink" version="1.1" id="Layer_1" xmlns="http://www.w3.org/2000/svg" x="0px" y="0px"
	 width="70px" height="70px" viewBox="0 0 70 70" enable-background="new 0 0 70 70" xml:space="preserve">
<g>
	<g>
		<circle fill="#FFFFFF" cx="34.914" cy="34.834" r="34.608"/>
		<path fill="#D1D1D1" d="M34.914,69.833c-19.299,0-35-15.701-35-35c0-19.299,15.701-35,35-35c19.299,0,35,15.701,35,35
			C69.914,54.132,54.213,69.833,34.914,69.833z M34.914,0.607c-18.867,0-34.216,15.354-34.216,34.227
			c0,18.872,15.35,34.225,34.216,34.225s34.215-15.354,34.215-34.225C69.129,15.961,53.781,0.607,34.914,0.607z"/>
	</g>
	<g>
		<path fill="#30D667" d="M46.69,21.323H23.27c-3.206,0-5.813,2.57-5.813,5.73v14.28c0,3.16,2.607,5.73,5.813,5.73h10.25
			c1.231,2.34,3.039,4.159,5.385,5.418c2.327,1.25,4.597,1.615,5.567,1.77c0.117,0.02,0.234,0.027,0.352,0.027
			c0.816,0,1.579-0.45,1.956-1.185c0.433-0.838,0.267-1.857-0.414-2.519c-1.205-1.172-1.892-2.262-2.363-3.512h2.688
			c3.205,0,5.812-2.57,5.812-5.73v-14.28C52.502,23.893,49.895,21.323,46.69,21.323z M50.307,41.333
			c0,1.964-1.627,3.567-3.617,3.567h-5.454c-0.008,0.11-0.037,0.222-0.014,0.332c0.581,2.737,1.405,4.744,3.602,6.882
			c-2.147-0.344-7.537-1.338-9.895-7.214H23.27c-1.99,0-3.617-1.604-3.617-3.567v-14.28c0-1.961,1.627-3.566,3.617-3.566h23.42
			c1.99,0,3.617,1.604,3.617,3.566V41.333z"/>
		<path fill="#30D667" d="M46.13,39.449h-5.426c-0.405,0-0.732,0.323-0.732,0.723c0,0.397,0.327,0.721,0.732,0.721h5.426
			c0.405,0,0.732-0.323,0.732-0.721C46.863,39.772,46.536,39.449,46.13,39.449z"/>
		<path fill="#30D667" d="M37.087,39.449H23.756c-0.404,0-0.731,0.323-0.731,0.723c0,0.397,0.328,0.721,0.731,0.721h13.331
			c0.404,0,0.731-0.323,0.731-0.721C37.819,39.772,37.492,39.449,37.087,39.449z"/>
		<path fill="#30D667" d="M46.13,35.421H31.059c-0.405,0-0.732,0.323-0.732,0.721s0.328,0.721,0.732,0.721H46.13
			c0.405,0,0.732-0.323,0.732-0.721S46.536,35.421,46.13,35.421z"/>
		<path fill="#30D667" d="M23.756,36.863h3.786c0.403,0,0.731-0.323,0.731-0.721s-0.329-0.721-0.731-0.721h-3.786
			c-0.404,0-0.731,0.323-0.731,0.721S23.353,36.863,23.756,36.863z"/>
		<path fill="#30D667" d="M46.13,31.393h-8.44c-0.403,0-0.732,0.323-0.732,0.721c0,0.399,0.329,0.722,0.732,0.722h8.44
			c0.405,0,0.732-0.323,0.732-0.722C46.863,31.716,46.536,31.393,46.13,31.393z"/>
		<path fill="#30D667" d="M23.756,32.836h9.11c0.405,0,0.732-0.323,0.732-0.722c0-0.398-0.327-0.721-0.732-0.721h-9.11
			c-0.404,0-0.731,0.323-0.731,0.721C23.025,32.513,23.353,32.836,23.756,32.836z"/>
		<path fill="#30D667" d="M46.13,27.364h-5.426c-0.405,0-0.732,0.323-0.732,0.722s0.327,0.721,0.732,0.721h5.426
			c0.405,0,0.732-0.322,0.732-0.721S46.536,27.364,46.13,27.364z"/>
		<path fill="#30D667" d="M23.756,28.807h12.729c0.404,0,0.731-0.322,0.731-0.721s-0.327-0.722-0.731-0.722H23.756
			c-0.404,0-0.731,0.323-0.731,0.722S23.353,28.807,23.756,28.807z"/>
	</g>
</g>
</svg>
