<?xml version="1.0" encoding="utf-8"?>
<!-- Generator: Adobe Illustrator 19.0.0, SVG Export Plug-In . SVG Version: 6.00 Build 0)  -->
<svg version="1.1" id="Layer_1" xmlns="http://www.w3.org/2000/svg"  x="0px" y="0px"
	 viewBox="-281 373 48.1 48" style="enable-background:new -281 373 48.1 48;" xml:space="preserve">
<style type="text/css">
	.st0 {
        display: none;
    }

    .st1 {
        display: inline;
    }

    .st2 {
        fill: #263167;
    }

    .st3 {
        fill: #00B4DC;
    }

    .st4 {
        display: inline;
        fill: #00B3DC;
    }

    .st5 {
        font-family: 'MyriadPro-Regular';
    }

    .st6 {
        font-size: 18px;
    }

    .st7 {
        display: inline;
        fill: #FFFFFF;
    }

    .st8 {
        display: inline;
        opacity: 0.31;
    }

    .st9 {
        display: inline;
        opacity: 0.65;
    }

    .st10 {
        display: inline;
        opacity: 0.73;
    }

    .st11 {
        font-size: 15.2066px;
    }

    .st12 {
        opacity: 0.31;
    }

    .st13 {
        opacity: 0.73;
    }

    .st14 {
        opacity: 0.65;
    }

    .st15 {
        display: none;
        fill: #FFFFFF;
        enable-background: new;
    }

    .st16 {
        font-size: 16.2204px;
    }
</style>
<g id="Icon_1" class="st0">
	<g class="st1">
		<path class="st2" d="M-257.2,410c-7.3,0-13.3-5.9-13.3-13.3c0-7.3,5.9-13.3,13.3-13.3c7.3,0,13.3,5.9,13.3,13.3
			C-244,404.1-249.9,410-257.2,410z"/>
		<path class="st3" d="M-257.2,385c6.5,0,11.8,5.3,11.8,11.8s-5.3,11.8-11.8,11.8c-6.5,0-11.8-5.4-11.8-11.8
			C-269,390.4-263.7,385-257.2,385 M-257.2,382c-8.2,0-14.8,6.6-14.8,14.8c0,8.2,6.6,14.8,14.8,14.8c8.2,0,14.8-6.6,14.8-14.8
			C-242.4,388.6-249.1,382-257.2,382L-257.2,382z"/>
	</g>
	<text transform="matrix(1 0 0 1 -267.209 402.2973)" class="st4 st5 st6">42</text>
</g>
<g id="Icon_2" class="st0">
	<g class="st1">
		<circle class="st2" cx="-257.2" cy="396.8" r="11.8"/>
	</g>
	<path class="st4" d="M-257.2,381.9c-8.1,0-14.7,6.6-14.7,14.8c0,8.2,6.6,14.8,14.7,14.8c8.1,0,14.7-6.6,14.7-14.8
		C-242.5,388.5-249.1,381.9-257.2,381.9z M-257.2,409.6c-7,0-12.6-5.7-12.6-12.8c0-7.1,5.6-12.8,12.6-12.8c7,0,12.6,5.7,12.6,12.8
		C-244.7,403.8-250.3,409.6-257.2,409.6z"/>
	<text transform="matrix(1 0 0 1 -267.209 402.2976)" class="st4 st5 st6">42</text>
</g>
<g id="Icon_3" class="st0">
	<circle class="st7" cx="-257.1" cy="396.8" r="14.3"/>
	<g class="st1">
		<circle class="st2" cx="-257.2" cy="396.8" r="11.8"/>
	</g>
	<path class="st4" d="M-257.2,381.9c-8.1,0-14.7,6.6-14.7,14.8c0,8.2,6.6,14.8,14.7,14.8c8.1,0,14.7-6.6,14.7-14.8
		C-242.5,388.5-249.1,381.9-257.2,381.9z M-257.2,409.6c-7,0-12.6-5.7-12.6-12.8c0-7.1,5.6-12.8,12.6-12.8c7,0,12.6,5.7,12.6,12.8
		C-244.7,403.8-250.3,409.6-257.2,409.6z"/>
	<text transform="matrix(1 0 0 1 -267.209 402.2976)" class="st4 st5 st6">42</text>
</g>
<g id="Icon_4" class="st0">
	<g class="st8">
		<path class="st3" d="M-257.1,385c6.5,0,11.8,5.3,11.8,11.8s-5.3,11.8-11.8,11.8s-11.8-5.3-11.8-11.8S-263.6,385-257.1,385
			 M-257.1,381c-8.7,0-15.7,7.1-15.7,15.8c0,8.7,7.1,15.8,15.8,15.8c8.7,0,15.8-7.1,15.8-15.8C-241.2,388.1-248.4,381-257.1,381
			L-257.1,381z"/>
	</g>
	<g class="st1">
		<path class="st2" d="M-257.2,410c-7.3,0-13.3-5.9-13.3-13.3c0-7.3,5.9-13.3,13.3-13.3c7.3,0,13.3,5.9,13.3,13.3
			C-244,404.1-249.9,410-257.2,410z"/>
		<path class="st3" d="M-257.2,385c6.5,0,11.8,5.3,11.8,11.8s-5.3,11.8-11.8,11.8c-6.5,0-11.8-5.4-11.8-11.8
			C-269,390.4-263.7,385-257.2,385 M-257.2,382c-8.2,0-14.8,6.6-14.8,14.8c0,8.2,6.6,14.8,14.8,14.8c8.2,0,14.8-6.6,14.8-14.8
			C-242.4,388.6-249.1,382-257.2,382L-257.2,382z"/>
	</g>
	<text transform="matrix(1 0 0 1 -267.209 402.2973)" class="st4 st5 st6">42</text>
	<g class="st9">
		<path class="st3" d="M-257.2,386c5.9,0,10.8,4.8,10.8,10.8s-4.8,10.8-10.8,10.8c-6,0-10.8-4.9-10.8-10.8
			C-268,390.9-263.2,386-257.2,386 M-257.2,385c-6.5,0-11.8,5.3-11.8,11.8s5.3,11.8,11.8,11.8c6.5,0,11.8-5.3,11.8-11.8
			S-250.8,385-257.2,385L-257.2,385z"/>
	</g>
</g>
<g id="Icon_5" class="st0">
	<g class="st1">
		<circle class="st2" cx="-257.3" cy="396.8" r="14.9"/>
	</g>
	<g class="st8">
		<path class="st3" d="M-257.1,381.9c8.2,0,14.9,6.7,14.9,14.9c0,8.2-6.7,14.9-14.9,14.9c-8.2,0-14.9-6.7-14.9-14.9
			C-272,388.6-265.3,381.9-257.1,381.9 M-257.1,374.3c-12.4,0-22.5,10-22.5,22.5s10.1,22.5,22.5,22.5c12.4,0,22.5-10.1,22.5-22.5
			C-234.6,384.4-244.7,374.3-257.1,374.3L-257.1,374.3z"/>
	</g>
	<g class="st10">
		<path class="st2" d="M-257.3,413.5c-9.3,0-16.8-7.5-16.8-16.8c0-9.2,7.6-16.7,16.8-16.7c9.2,0,16.8,7.5,16.8,16.8
			C-240.5,406-248,413.5-257.3,413.5z"/>
		<path class="st3" d="M-257.3,381.9c8.2,0,14.9,6.7,14.9,14.9c0,8.2-6.6,14.8-14.9,14.8c-8.3,0-14.9-6.6-14.9-14.8
			C-272.2,388.6-265.5,381.9-257.3,381.9 M-257.3,378.1c-10.3,0-18.7,8.3-18.7,18.7c0,10.4,8.4,18.7,18.7,18.7
			c10.3,0,18.7-8.4,18.7-18.7C-238.6,386.5-247,378.1-257.3,378.1L-257.3,378.1z"/>
	</g>
	<g class="st9">
		<path class="st3" d="M-257.3,384.4c6.8,0,12.4,5.5,12.4,12.4c0,6.9-5.5,12.4-12.4,12.4c-6.9,0-12.4-5.5-12.4-12.4
			C-269.7,389.9-264.1,384.4-257.3,384.4 M-257.3,381.9c-8.2,0-14.9,6.7-14.9,14.9c0,8.2,6.7,14.9,14.9,14.9
			c8.2,0,14.9-6.7,14.9-14.9C-242.4,388.6-249,381.9-257.3,381.9L-257.3,381.9z"/>
	</g>
	<text transform="matrix(1 0 0 1 -260.771 401.1035)" class="st7 st5 st11">8</text>
</g>
<g id="Icon_5_Kopie">
	<g>
		<ellipse class="st2" cx="-257.2" cy="397" rx="15.9" ry="15.9"/>
	</g>
	<g class="st12">
		<path class="st3" d="M-257,381.1c8.8,0,15.9,7.1,15.9,15.9s-7.2,15.9-15.9,15.9c-8.8,0-15.9-7.1-15.9-15.9S-265.7,381.1-257,381.1
			 M-257,373c-13.3,0-24,10.7-24,24s10.8,24,24,24c13.3,0,24.1-10.8,24.1-24S-243.7,373-257,373L-257,373z"/>
	</g>
	<g class="st13">
		<path class="st2" d="M-257.2,414.8c-9.9,0-18-8-18-17.9c0-9.8,8.1-17.8,18-17.8c9.8,0,18,8,18,17.9
			C-239.2,406.8-247.2,414.8-257.2,414.8z"/>
		<path class="st3" d="M-257.2,381.1c8.8,0,15.9,7.1,15.9,15.9s-7.1,15.8-15.9,15.8c-8.9,0-15.9-7-15.9-15.8
			S-265.9,381.1-257.2,381.1 M-257.2,377.1c-11,0-20,8.9-20,19.9s9,19.9,20,19.9c11,0,20-9,20-19.9S-246.2,377.1-257.2,377.1
			L-257.2,377.1z"/>
	</g>
	<g class="st14">
		<path class="st3" d="M-257.2,383.8c7.3,0,13.3,5.9,13.3,13.2s-5.9,13.2-13.3,13.2s-13.3-5.9-13.3-13.2
			C-270.4,389.6-264.4,383.8-257.2,383.8 M-257.2,381.1c-8.8,0-15.9,7.1-15.9,15.9s7.2,15.9,15.9,15.9s15.9-7.1,15.9-15.9
			S-248.3,381.1-257.2,381.1L-257.2,381.1z"/>
	</g>
	<text transform="matrix(1.0021 0 0 1 -260.8735 401.5908)" class="st15 st5 st16">8</text>
</g>
</svg>
