<?xml version="1.0" encoding="utf-8"?>
<!-- Generator: Adobe Illustrator 16.0.0, SVG Export Plug-In . SVG Version: 6.00 Build 0)  -->
<!DOCTYPE svg PUBLIC "-//W3C//DTD SVG 1.1//EN" "http://www.w3.org/Graphics/SVG/1.1/DTD/svg11.dtd">
<svg xmlns:xlink="http://www.w3.org/1999/xlink" version="1.1" id="Layer_1" xmlns="http://www.w3.org/2000/svg" x="0px" y="0px"
	 width="370px" height="177.068px" viewBox="0 0 370 177.068" enable-background="new 0 0 370 177.068" xml:space="preserve">
<g>
	<path fill="#FFCE00" d="M241,57.808h-0.035c0.012-1,0.035-1.069,0.035-1.547c0-31.074-25.07-56.326-56-56.326
		c-30.928,0-56,25.281-56,56.355c0,0.479,0.023,0.518,0.036,1.518H129l-129,119h370L241,57.808z"/>
</g>
<g>
	<path fill="#FFCE00" stroke="#DBB205" stroke-miterlimit="10" d="M168.5,69.568c1.166,1.667,7.5,11.5,10.682,15.833
		s17.152,5.334,20.652,3.133s5.166-4.133,5.834-8.466c0.666-4.333,0-18,0-18l-2.334-3l-2.959,1.375l-9.625-2.559l-3.518-1.441
		c0,0,1.23-6.125,0-8.375c-1.232-2.25-6.869-3.75-8.05,0s-0.932,16.25-0.932,16.25l-5.375-0.125L168.5,69.568z"/>
	<path fill="#3F3F3F" d="M168.754,53.982c0.768-0.174,1.251-0.939,1.078-1.711c-0.362-1.622-0.418-3.286-0.162-4.946
		c1.114-7.247,7.888-12.231,15.106-11.109c1.704,0.265,3.307,0.846,4.768,1.726c0.678,0.406,1.551,0.185,1.955-0.494
		s0.184-1.559-0.49-1.965c-1.779-1.069-3.73-1.776-5.797-2.097c-8.762-1.363-17.005,4.693-18.361,13.503
		c-0.308,2.017-0.241,4.037,0.2,6.011c0.148,0.666,0.737,1.118,1.39,1.118C168.543,54.018,168.648,54.007,168.754,53.982z"/>
	<path fill="#3F3F3F" d="M208.437,64.665c0-2.048-0.801-3.854-2.146-5.104c1.35-3.132,2.107-6.578,2.107-10.202
		c0-14.211-11.504-25.771-25.646-25.771c-14.144,0-25.649,11.561-25.649,25.771c0,8.512,4.138,16.057,10.489,20.752
		c0.045,0.256,0.103,0.511,0.176,0.765c0.242,0.829,0.576,1.572,0.998,2.217c2.3,3.522,4.906,7.515,7.492,11.406
		c2.621,3.939,6.411,6.389,11.269,7.281c0.613,0.108,1.172,0.182,1.711,0.251c0.258,0.035,0.52,0.069,0.777,0.106
		c0.201,0.029,0.408,0.044,0.613,0.044h2.896c0.23,0,0.457-0.017,0.684-0.055c0.254-0.041,0.508-0.081,0.766-0.121
		c0.439-0.069,0.879-0.138,1.316-0.211c6.135-1.063,10.768-5.7,11.805-11.819c0.213-1.223,0.322-2.462,0.326-3.672
		c0.016-4.593,0.016-5.169,0.014-7.025C208.435,68.324,208.435,67.028,208.437,64.665z M161.379,49.359
		c0-11.862,9.568-21.475,21.373-21.475c11.802,0,21.371,9.612,21.371,21.475c0,3.009-0.629,5.868-1.74,8.469
		c-0.201-0.02-0.4-0.034-0.602-0.034c-0.617,0-1.223,0.086-1.799,0.249c-0.666-0.632-1.463-1.127-2.359-1.436
		c-0.146-0.05-0.295-0.092-0.443-0.132c0.705-1.43,1.213-2.985,1.469-4.646c0.551-3.571-0.076-7.128-1.814-10.284
		c-0.381-0.692-1.248-0.944-1.938-0.562c-0.689,0.384-0.939,1.254-0.559,1.947c1.43,2.596,1.947,5.522,1.492,8.46
		c-0.285,1.854-0.949,3.55-1.893,5.038c-0.084,0.019-0.172,0.029-0.256,0.052c-0.586-0.542-1.289-0.987-2.094-1.327
		c-0.615-0.327-1.303-0.5-2.002-0.5h-0.145c0-1.844,0-3.594-0.002-4.999c0-3.487-2.305-6.198-5.738-6.74
		c-0.324-0.053-0.646-0.077-0.959-0.077c-3.356,0-6.307,2.71-6.576,6.043c-0.033,0.427-0.033,0.787-0.033,1.076v10.905
		c-1.33-0.77-2.531-1.764-3.533-2.968c-0.505-0.604-1.402-0.687-2.01-0.18c-0.603,0.509-0.683,1.411-0.179,2.018
		c0.696,0.836,1.476,1.583,2.312,2.253c-1.732,0.443-3.251,1.556-4.197,3.112c-0.037,0.062-0.064,0.124-0.1,0.185
		C164.101,61.354,161.379,55.678,161.379,49.359z M204.144,76.287c-0.004,0.988-0.096,1.988-0.264,2.966
		c-0.734,4.321-3.992,7.558-8.307,8.305c-0.68,0.115-1.365,0.218-2.049,0.329c-0.965,0-1.93,0-2.896,0
		c-0.775-0.115-1.559-0.197-2.332-0.335c-3.562-0.653-6.453-2.387-8.48-5.438c-2.514-3.781-4.994-7.576-7.475-11.376
		c-0.209-0.32-0.359-0.692-0.468-1.062c-0.464-1.605,0.478-3.263,2.05-3.568c0.229-0.044,0.45-0.067,0.66-0.067
		c0.955,0,1.771,0.434,2.395,1.245c1.039,1.351,2.021,2.745,3.027,4.12c0.105,0.146,0.213,0.293,0.322,0.438
		c0.026-0.013,0.055-0.021,0.082-0.033c0-0.128,0-0.258,0-0.386c0-6.297,0-15.17,0-21.467c0-0.245,0-0.486,0.018-0.729
		c0.092-1.133,1.192-2.094,2.314-2.094c0.097,0,0.197,0.009,0.295,0.024c1.328,0.21,2.126,1.137,2.126,2.5
		c0.003,3.821,0,10.216,0.005,14.04c0,0.199,0.013,0.406,0.071,0.595c0.098,0.31,0.331,0.476,0.659,0.501c0.025,0,0.049,0,0.07,0
		c0.314,0,0.549-0.159,0.672-0.442c0.078-0.176,0.082-0.392,0.082-0.592c0-1.313-0.002-1.729-0.002-1.729l-0.004,1.223
		c0-0.004,0-0.423,0.002-1.731c0-0.861,0.291-1.614,1.021-2.125c0.27-0.184,0.588-0.299,0.883-0.445c0.322,0,0.643,0,0.963,0
		c0.033,0.025,0.061,0.057,0.098,0.069c1.25,0.434,1.83,1.247,1.83,2.566c-0.002,1.295-0.002,1.708-0.004,1.708v-1.26
		c0,0,0,0.414,0,1.71c0,0.123-0.004,0.242,0.008,0.361c0.053,0.413,0.369,0.688,0.766,0.688c0.025,0,0.051,0,0.076-0.003
		c0.42-0.037,0.662-0.326,0.691-0.85c0-0.004,0-0.008,0-0.013c0.002-0.031,0.002-0.064,0.002-0.096c0-0.346,0-0.609,0-0.812
		c0.02-0.563,0.156-1.093,0.518-1.551c0.473-0.603,1.162-0.932,1.881-0.932c0.26,0,0.525,0.044,0.783,0.132
		c0.988,0.341,1.619,1.304,1.619,2.453c-0.002,1.296-0.004,1.71-0.004,1.71s-0.002-1.262-0.004-1.262c0,0,0,0.412,0,1.71
		c0,0.148,0,0.297,0.014,0.444c0.049,0.389,0.301,0.59,0.658,0.661c0.037,0.008,0.074,0.011,0.113,0.011
		c0.285,0,0.586-0.199,0.684-0.486c0.062-0.186,0.078-0.394,0.078-0.594c0-0.177,0-0.327,0-0.455c0,0.402,0,0.871,0,0.871
		c0.004,0,0.008-0.262,0.01-1.018c0.006-0.418,0.08-0.866,0.246-1.249c0.375-0.858,1.24-1.376,2.133-1.376
		c0.166,0,0.326,0.02,0.49,0.056c1.156,0.252,1.889,1.238,1.889,2.516C204.156,71.606,204.166,69.341,204.144,76.287z"/>
</g>
<g>
	<path fill="#3F3F3F" d="M113.655,130.601c0,5.84-2.49,8.76-7.471,8.76c-5.01,0-7.515-2.852-7.515-8.555v-1.641
		c0-4.648,2.441-7.377,7.324-8.188h0.645c0.439-0.596,0.654-1.227,0.645-1.891c0.01-0.967-0.483-1.449-1.479-1.449
		c-0.928,0-1.392,0.654-1.392,1.963h-3.853c0-3.672,1.733-5.508,5.2-5.508c3.516,0,5.269,1.689,5.259,5.068
		c-0.059,1.064-0.322,2.006-0.791,2.826c1.123,0.674,1.975,1.631,2.556,2.871s0.872,2.754,0.872,4.541V130.601z M109.363,129.517
		c0-3.379-1.025-5.068-3.076-5.068c-2.207,0-3.311,1.66-3.311,4.98v1.305c0,3.398,1.089,5.098,3.267,5.098
		c2.08,0,3.12-1.699,3.12-5.098V129.517z"/>
	<path fill="#3F3F3F" d="M130.193,131.216c0,5.43-2.28,8.145-6.841,8.145c-4.707,0-7.061-2.738-7.061-8.217v-1.934l0.85-4.277h4.468
		l-1.011,4.76v2.549c0,2.393,0.918,3.59,2.754,3.59c1.758,0,2.637-1.246,2.637-3.736v-3.545c0-2.148-1.018-4.271-3.054-6.371
		s-3.054-4.707-3.054-7.822h4.204c0.01,2.334,1.028,4.691,3.054,7.074s3.044,4.918,3.054,7.604V131.216z"/>
	<path fill="#3F3F3F" d="M146.687,131.626c0,5.156-2.227,7.734-6.68,7.734c-4.795,0-7.192-2.575-7.192-7.728v-2.386
		c0-5.133,2.305-7.703,6.914-7.713c0.508,0,1.479,0.16,2.915,0.482v-1.645c0-1.804-0.845-2.715-2.534-2.734
		c-1.611-0.01-2.432,0.703-2.461,2.139h-4.146c0-3.779,2.144-5.67,6.431-5.67c4.502,0,6.753,2.105,6.753,6.314V131.626z
		 M142.629,125.796c-1.211-0.332-2.08-0.502-2.607-0.512c-1.934,0-2.9,1.225-2.9,3.676v2.52c0,2.9,0.962,4.352,2.886,4.352
		c1.748,0,2.622-1.357,2.622-4.072V125.796z"/>
	<path fill="#3F3F3F" d="M171.033,128.579c0,3.867-1.23,7.32-3.691,10.357h-4.966c2.93-3.916,4.395-7.373,4.395-10.371v-7.5
		c0-2.295-0.786-3.443-2.358-3.443c-1.221,0-1.831,0.771-1.831,2.314v10.592h-4.233v-10.709c0-1.465-0.757-2.197-2.271-2.197
		c-1.279,0-1.919,1.148-1.919,3.443v7.5c0,3.057,1.309,6.514,3.926,10.371h-4.819c-2.285-3.037-3.428-6.494-3.428-10.371v-6.328
		c0-5.43,2.163-8.145,6.489-8.145c1.758,0,3.169,0.723,4.233,2.168c1.064-1.445,2.349-2.168,3.853-2.168
		c4.414,0,6.621,2.715,6.621,8.145V128.579z"/>
	<path fill="#3F3F3F" d="M187.673,131.479c0,5.244-2.31,7.867-6.929,7.867c-4.629,0-6.943-2.85-6.943-8.547v-1.012
		c0-5.698,2.314-8.547,6.943-8.547c0.732-0.01,1.694,0.161,2.886,0.514v-7.398h4.043V131.479z M183.63,125.665
		c-0.732-0.449-1.733-0.674-3.003-0.674c-1.68,0-2.52,1.602-2.52,4.805v1.215c0,3.184,0.84,4.775,2.52,4.775
		c2.002,0,3.003-1.547,3.003-4.643V125.665z"/>
	<path fill="#3F3F3F" d="M204.592,131.216c0,5.43-2.28,8.145-6.841,8.145c-4.707,0-7.061-2.738-7.061-8.217v-1.934l0.85-4.277h4.468
		l-1.011,4.76v2.549c0,2.393,0.918,3.59,2.754,3.59c1.758,0,2.637-1.246,2.637-3.736v-3.545c0-2.148-1.018-4.271-3.055-6.371
		c-2.035-2.1-3.054-4.707-3.054-7.822h4.204c0.01,2.334,1.027,4.691,3.055,7.074c2.025,2.383,3.044,4.918,3.054,7.604V131.216z"/>
	<path fill="#3F3F3F" d="M221.511,131.019c0,5.562-2.28,8.342-6.841,8.342c-4.707,0-7.061-2.738-7.061-8.217v-16.787h4.204v7.367
		c1.357-0.312,2.251-0.469,2.681-0.469c4.678,0.01,7.017,2.83,7.017,8.461V131.019z M217.307,128.286
		c0-2.197-0.933-3.291-2.798-3.281c-0.449,0.01-1.348,0.273-2.695,0.791v6.152c0,2.607,0.952,3.912,2.856,3.912
		c1.758,0,2.637-1.256,2.637-3.766V128.286z"/>
	<path fill="#3F3F3F" d="M238.035,132.007c0,4.912-2.344,7.369-7.031,7.369c-4.58,0-6.865-2.49-6.855-7.471l0.483-4.043h4.6
		l-0.806,4.863c0,2.07,0.884,3.105,2.651,3.105c1.943,0.02,2.905-1.045,2.886-3.193v-13.125c0-1.25-0.835-1.875-2.505-1.875
		c-1.328,0-1.997,0.83-2.007,2.49l0.439,3.809h-4.38l-0.205-3.779c0-4.043,2.109-6.064,6.328-6.064c4.268,0,6.401,1.928,6.401,5.785
		V132.007z"/>
	<path fill="#3F3F3F" d="M254.822,130.323c0,6.035-2.316,9.053-6.951,9.053c-4.633,0-6.95-3.018-6.95-9.053v-0.82
		c0-4.59,1.777-7.301,5.332-8.131c0.039-1.133-0.181-1.859-0.659-2.182c-1.416-0.957-2.129-2.607-2.139-4.951h4.526
		c0,1.377,0.308,2.314,0.923,2.812c0.957,0.762,1.436,1.898,1.436,3.412l-0.073,1.055c3.018,0.938,4.536,3.623,4.556,8.057V130.323z
		 M250.618,129.093c0-2.92-0.913-4.381-2.739-4.381c-1.748,0.059-2.632,1.611-2.651,4.658v1.158c0,3.545,0.879,5.316,2.637,5.316
		c1.836,0,2.754-1.748,2.754-5.244V129.093z"/>
	<path fill="#3F3F3F" d="M271.345,131.216c0,5.43-2.28,8.145-6.841,8.145c-4.707,0-7.061-2.738-7.061-8.217v-1.934l0.85-4.277h4.468
		l-1.011,4.76v2.549c0,2.393,0.918,3.59,2.754,3.59c1.758,0,2.637-1.246,2.637-3.736v-3.545c0-2.148-1.019-4.271-3.054-6.371
		c-2.037-2.1-3.055-4.707-3.055-7.822h4.204c0.01,2.334,1.028,4.691,3.054,7.074c2.027,2.383,3.045,4.918,3.055,7.604V131.216z"/>
</g>
</svg>
