<?xml version="1.0" encoding="utf-8"?>
<!-- Generator: Adobe Illustrator 16.0.0, SVG Export Plug-In . SVG Version: 6.00 Build 0)  -->
<!DOCTYPE svg PUBLIC "-//W3C//DTD SVG 1.1//EN" "http://www.w3.org/Graphics/SVG/1.1/DTD/svg11.dtd">
<svg xmlns:xlink="http://www.w3.org/1999/xlink" version="1.1" id="Layer_1" xmlns="http://www.w3.org/2000/svg" x="0px" y="0px"
	 width="284.333px" height="76px" viewBox="0 0 284.333 76" enable-background="new 0 0 284.333 76" xml:space="preserve">
<g>
	<path fill="#4FBF71" d="M34.665-0.192v0.386c-20,1.537-34.333,17.679-34.333,37.379c0,19.702,14.333,35.844,34.333,37.381v0.854
		h250v-76H34.665z"/>
</g>
<g>
	<path fill="#FFFFFF" d="M98.484,42.468c0,5.451-2.324,8.175-6.973,8.175c-4.676,0-7.014-2.661-7.014-7.984v-1.531
		c0-4.338,2.278-6.886,6.836-7.643h0.602c0.41-0.556,0.61-1.144,0.602-1.764c0.009-0.902-0.451-1.354-1.381-1.354
		c-0.866,0-1.299,0.611-1.299,1.832h-3.596c0-3.427,1.618-5.141,4.854-5.141c3.281,0,4.917,1.577,4.908,4.73
		c-0.055,0.994-0.301,1.873-0.738,2.639c1.048,0.629,1.843,1.522,2.386,2.68c0.542,1.158,0.813,2.57,0.813,4.238V42.468z
		 M94.478,41.457c0-3.153-0.957-4.73-2.871-4.73c-2.06,0-3.09,1.55-3.09,4.648v1.217c0,3.172,1.016,4.758,3.049,4.758
		c1.941,0,2.912-1.586,2.912-4.758V41.457z"/>
	<path fill="#FFFFFF" d="M113.919,43.042c0,5.068-2.128,7.601-6.385,7.601c-4.394,0-6.59-2.556-6.59-7.669v-1.805l0.793-3.992h4.17
		l-0.943,4.443V44c0,2.233,0.856,3.35,2.57,3.35c1.641,0,2.461-1.162,2.461-3.486v-3.309c0-2.005-0.95-3.987-2.851-5.947
		c-1.9-1.959-2.851-4.393-2.851-7.301h3.924c0.009,2.179,0.959,4.38,2.851,6.604c1.891,2.224,2.841,4.589,2.851,7.096V43.042z"/>
	<path fill="#FFFFFF" d="M129.314,43.425c0,4.812-2.078,7.218-6.234,7.218c-4.476,0-6.713-2.404-6.713-7.212v-2.227
		c0-4.791,2.151-7.19,6.453-7.199c0.474,0,1.381,0.15,2.721,0.451v-1.535c0-1.684-0.789-2.534-2.365-2.553
		c-1.504-0.009-2.27,0.656-2.297,1.996h-3.869c0-3.527,2-5.291,6.002-5.291c4.202,0,6.303,1.964,6.303,5.893V43.425z
		 M125.527,37.984c-1.13-0.31-1.941-0.469-2.434-0.479c-1.805,0-2.707,1.144-2.707,3.432v2.352c0,2.707,0.897,4.061,2.693,4.061
		c1.631,0,2.447-1.267,2.447-3.801V37.984z"/>
	<path fill="#FFFFFF" d="M152.037,40.582c0,3.609-1.148,6.832-3.445,9.666h-4.635c2.734-3.654,4.102-6.881,4.102-9.679v-7
		c0-2.142-0.733-3.213-2.201-3.213c-1.14,0-1.709,0.72-1.709,2.16V42.4h-3.951v-9.994c0-1.367-0.707-2.051-2.119-2.051
		c-1.194,0-1.791,1.071-1.791,3.213v7c0,2.853,1.221,6.08,3.664,9.679h-4.498c-2.133-2.834-3.199-6.061-3.199-9.679v-5.906
		c0-5.067,2.019-7.602,6.057-7.602c1.641,0,2.958,0.675,3.951,2.023c0.993-1.349,2.192-2.023,3.596-2.023
		c4.12,0,6.18,2.534,6.18,7.602V40.582z"/>
	<path fill="#FFFFFF" d="M167.13,32.912c-0.009,1.978-0.907,3.514-2.693,4.607c2.105,0.647,3.158,2.188,3.158,4.621v1.6
		c0,4.612-2.163,6.917-6.487,6.917c-4.325,0-6.487-2.424-6.487-7.273l0.328-3.336h4.129l-0.451,4.225
		c0,2.051,0.825,3.076,2.475,3.076c1.714,0,2.57-0.993,2.57-2.98v-2.16c0-1.659-0.46-2.488-1.381-2.488h-1.641v-3.445h1.135
		c0.884-0.009,1.321-1.358,1.312-4.047c0-1.249-0.661-1.873-1.982-1.873c-1.358,0.019-2.051,0.752-2.078,2.201l0.314,2.488h-4.047
		l-0.109-2.215c0-3.846,1.974-5.77,5.92-5.77C165.125,27.06,167.13,29.011,167.13,32.912z"/>
	<path fill="#FFFFFF" d="M172.011,46.789c0.692-0.574,1.403-1.012,2.133-1.312c-1.167-1.467-2.101-3.042-2.803-4.724
		s-1.053-3.425-1.053-5.229v-1.395c0-4.712,1.996-7.068,5.988-7.068c1.304,0,2.529,0.538,3.678,1.613
		c0.474-0.528,1.058-0.909,1.75-1.142s1.522-0.349,2.488-0.349c4.238,0,6.357,2.397,6.357,7.191v1.9
		c0,5.141-2.119,7.861-6.357,8.162c-4.147-0.282-6.221-3.003-6.221-8.162v-1.518c0-1.03,0.142-2.014,0.424-2.953
		c-0.52-0.948-1.189-1.422-2.01-1.422c-1.386,0-2.078,1.203-2.078,3.609v1.271c0,1.923,0.442,3.913,1.326,5.968
		c0.884,2.056,2.411,3.402,4.58,4.04c4.457,0.738,6.69,2.397,6.699,4.976h-4.936c-0.128-1.367-1.331-2.059-3.609-2.078
		c-1.687,0.019-3.19,0.683-4.512,1.996L172.011,46.789z M186.517,34.949c0-2.971-0.774-4.457-2.324-4.457
		c-1.485,0-2.233,1.294-2.242,3.883v1.969c-0.019,3.163,0.729,4.744,2.242,4.744c1.55,0,2.324-1.454,2.324-4.361V34.949z"/>
	<path fill="#FFFFFF" d="M205.398,39.857c0,3.236-0.497,6.699-1.49,10.39h-4.197c1.121-3.217,1.682-6.68,1.682-10.39v-6.193
		c0-2.196-0.638-3.295-1.914-3.295c-1.632,0-2.447,1.099-2.447,3.295v6.193c0,1.823,0.15,3.594,0.451,5.312
		c0.301,1.718,0.752,3.411,1.354,5.079h-4.225c-1.066-3.582-1.6-7.045-1.6-10.39v-5.236c0-5.04,2.155-7.561,6.467-7.561
		c3.946,0,5.92,2.521,5.92,7.561V39.857z"/>
	<path fill="#FFFFFF" d="M220.369,32.912c-0.009,1.978-0.907,3.514-2.693,4.607c2.105,0.647,3.158,2.188,3.158,4.621v1.6
		c0,4.612-2.163,6.917-6.487,6.917c-4.325,0-6.487-2.424-6.487-7.273l0.328-3.336h4.129l-0.451,4.225
		c0,2.051,0.825,3.076,2.475,3.076c1.714,0,2.57-0.993,2.57-2.98v-2.16c0-1.659-0.46-2.488-1.381-2.488h-1.641v-3.445h1.135
		c0.884-0.009,1.321-1.358,1.312-4.047c0-1.249-0.661-1.873-1.982-1.873c-1.358,0.019-2.051,0.752-2.078,2.201l0.314,2.488h-4.047
		l-0.109-2.215c0-3.846,1.974-5.77,5.92-5.77C218.364,27.06,220.369,29.011,220.369,32.912z"/>
	<path fill="#FFFFFF" d="M236.501,43.042c0,5.068-2.128,7.601-6.385,7.601c-4.394,0-6.59-2.556-6.59-7.669v-1.805l0.793-3.992h4.17
		l-0.943,4.443V44c0,2.233,0.856,3.35,2.57,3.35c1.641,0,2.461-1.162,2.461-3.486v-3.309c0-2.005-0.95-3.987-2.851-5.947
		c-1.9-1.959-2.851-4.393-2.851-7.301h3.924c0.009,2.179,0.959,4.38,2.851,6.604c1.891,2.224,2.842,4.589,2.851,7.096V43.042z"/>
	<path fill="#FFFFFF" d="M259.785,40.992c0,3.683-1.226,6.768-3.678,9.255h-4.895c2.962-3.545,4.443-6.667,4.443-9.365v-2.611
		c0-1.859-0.692-2.793-2.078-2.803c-1.431,0-2.151,0.779-2.16,2.338v5.934h-4.047v-5.934c0-1.549-0.774-2.324-2.324-2.324
		c-1.386,0-2.078,0.93-2.078,2.789v2.721c0,2.589,1.545,5.674,4.635,9.255h-4.867c-2.524-2.469-3.787-5.555-3.787-9.255v-1.518
		c0-3.682,1.157-6.699,3.473-9.051c2.242-2.242,6.558-3.363,12.947-3.363v3.309c-5.915-0.009-9.565,0.866-10.951,2.625
		c2.442-0.711,4.12-0.282,5.031,1.285c1.058-1.385,2.365-2.078,3.924-2.078c4.257,0,6.394,2.402,6.412,7.205V40.992z"/>
</g>
<g>
	<g>
		<path fill="#FFFFFF" d="M37.103,16.67c11.394,0,20.663,9.27,20.663,20.663s-9.27,20.663-20.663,20.663s-20.663-9.27-20.663-20.663
			S25.709,16.67,37.103,16.67 M37.103,11.67c-14.174,0-25.663,11.489-25.663,25.663s11.489,25.663,25.663,25.663
			s25.663-11.489,25.663-25.663S51.276,11.67,37.103,11.67L37.103,11.67z"/>
	</g>
	
		<line fill="none" stroke="#FFFFFF" stroke-width="4" stroke-linecap="round" stroke-miterlimit="10" x1="39.192" y1="40.842" x2="46.083" y2="28.625"/>
	
		<line fill="none" stroke="#FFFFFF" stroke-width="4" stroke-linecap="round" stroke-miterlimit="10" x1="27.333" y1="34.733" x2="37.103" y2="46.625"/>
</g>
</svg>
