<?xml version="1.0" encoding="utf-8"?>
<!-- Generator: Adobe Illustrator 16.0.0, SVG Export Plug-In . SVG Version: 6.00 Build 0)  -->
<!DOCTYPE svg PUBLIC "-//W3C//DTD SVG 1.1//EN" "http://www.w3.org/Graphics/SVG/1.1/DTD/svg11.dtd">
<svg xmlns:xlink="http://www.w3.org/1999/xlink" version="1.1" id="Layer_1" xmlns="http://www.w3.org/2000/svg" x="0px" y="0px"
	 width="253.666px" height="76px" viewBox="0 0 253.666 76" enable-background="new 0 0 253.666 76" xml:space="preserve">
<g>
	<path fill="#E06B3D" d="M33.998-0.192v0.386c-19,1.537-34.333,17.679-34.333,37.379c0,19.702,15.333,35.844,34.333,37.381v0.854
		h219v-76H33.998z"/>
</g>
<g>
	<path fill="#FFFFFF" d="M98.484,42.468c0,5.451-2.324,8.175-6.973,8.175c-4.676,0-7.014-2.661-7.014-7.984v-1.531
		c0-4.338,2.278-6.886,6.836-7.643h0.602c0.41-0.556,0.61-1.144,0.602-1.764c0.009-0.902-0.451-1.354-1.381-1.354
		c-0.866,0-1.299,0.611-1.299,1.832h-3.596c0-3.427,1.618-5.141,4.854-5.141c3.281,0,4.917,1.577,4.908,4.73
		c-0.055,0.994-0.301,1.873-0.738,2.639c1.048,0.629,1.843,1.522,2.386,2.68c0.542,1.158,0.813,2.57,0.813,4.238V42.468z
		 M94.478,41.457c0-3.153-0.957-4.73-2.871-4.73c-2.06,0-3.09,1.55-3.09,4.648v1.217c0,3.172,1.016,4.758,3.049,4.758
		c1.941,0,2.912-1.586,2.912-4.758V41.457z"/>
	<path fill="#FFFFFF" d="M113.919,43.042c0,5.068-2.129,7.601-6.385,7.601c-4.394,0-6.59-2.556-6.59-7.669v-1.805l0.793-3.992h4.17
		l-0.943,4.443V44c0,2.233,0.856,3.35,2.57,3.35c1.641,0,2.461-1.162,2.461-3.486v-3.309c0-2.005-0.95-3.987-2.851-5.947
		c-1.9-1.959-2.851-4.393-2.851-7.301h3.924c0.009,2.179,0.959,4.38,2.851,6.604c1.892,2.224,2.841,4.589,2.851,7.096V43.042z"/>
	<path fill="#FFFFFF" d="M129.492,43.289c0.009,4.904-2.056,7.355-6.193,7.355c-4.484,0-6.74-2.314-6.768-6.945l0.492-4.047h4.211
		l-0.67,4.717c0,1.987,0.93,2.98,2.789,2.98c1.567,0,2.352-0.889,2.352-2.666V31.886c-0.01-1.012-0.338-1.518-0.984-1.518
		c-0.885,0-1.322,0.552-1.312,1.654v4.621h-3.664v-4.867c-0.019-0.938-0.434-1.408-1.244-1.408h-2.502V27.06h2.529
		c1.212,0,2.128,0.702,2.748,2.105c0.82-1.403,1.836-2.105,3.049-2.105c3.445,0,5.168,1.818,5.168,5.455V43.289z"/>
	<path fill="#FFFFFF" d="M145.296,43.753c0,4.594-2.188,6.89-6.562,6.89c-4.266-0.009-6.398-2.324-6.398-6.945l0.383-3.404h4.252
		l-0.615,3.5c0.018,2.37,0.82,3.555,2.406,3.555c1.832,0,2.748-1.221,2.748-3.664V36.74c-1.459-3.317-2.644-4.985-3.555-5.004
		c-0.866,0.027-1.312,0.524-1.34,1.49l0.424,3.418h-3.924l-0.328-3.227c0-3.445,1.709-5.159,5.127-5.141
		c1.176,0,2.374,0.82,3.596,2.461v-3.432h3.787V43.753z"/>
	<path fill="#FFFFFF" d="M161.06,43.425c0,4.812-2.078,7.218-6.234,7.218c-4.476,0-6.713-2.404-6.713-7.212v-2.227
		c0-4.791,2.15-7.19,6.453-7.199c0.474,0,1.381,0.15,2.721,0.451v-1.535c0-1.684-0.789-2.534-2.365-2.553
		c-1.504-0.009-2.27,0.656-2.297,1.996h-3.869c0-3.527,2-5.291,6.002-5.291c4.201,0,6.303,1.964,6.303,5.893V43.425z
		 M157.273,37.984c-1.131-0.31-1.941-0.469-2.434-0.479c-1.805,0-2.707,1.144-2.707,3.432v2.352c0,2.707,0.897,4.061,2.693,4.061
		c1.631,0,2.447-1.267,2.447-3.801V37.984z"/>
	<path fill="#FFFFFF" d="M176.851,43.781c0,4.585-2.188,6.876-6.562,6.876c-4.275,0-6.408-2.324-6.398-6.972l0.451-3.773h4.293
		l-0.752,4.539c0,1.933,0.824,2.898,2.475,2.898c1.813,0.019,2.711-0.975,2.693-2.98v-12.25c0-1.167-0.779-1.75-2.338-1.75
		c-1.24,0-1.864,0.775-1.873,2.324l0.41,3.555h-4.088l-0.191-3.527c0-3.773,1.969-5.66,5.906-5.66c3.982,0,5.975,1.8,5.975,5.4
		V43.781z"/>
	<path fill="#FFFFFF" d="M192.519,42.208c0,5.633-2.162,8.449-6.487,8.449s-6.487-2.816-6.487-8.449v-0.766
		c0-4.284,1.658-6.813,4.977-7.588c0.036-1.057-0.169-1.736-0.615-2.037c-1.322-0.893-1.987-2.434-1.996-4.621h4.225
		c0,1.285,0.287,2.16,0.861,2.625c0.893,0.711,1.34,1.773,1.34,3.186l-0.068,0.984c2.816,0.875,4.233,3.382,4.252,7.52V42.208z
		 M188.595,41.06c0-2.725-0.853-4.088-2.557-4.088c-1.632,0.055-2.457,1.504-2.475,4.348v1.08c0,3.309,0.82,4.963,2.461,4.963
		c1.713,0,2.57-1.631,2.57-4.895V41.06z"/>
	<path fill="#FFFFFF" d="M207.941,43.042c0,5.068-2.129,7.601-6.385,7.601c-4.394,0-6.59-2.556-6.59-7.669v-1.805l0.793-3.992h4.17
		l-0.943,4.443V44c0,2.233,0.856,3.35,2.57,3.35c1.641,0,2.461-1.162,2.461-3.486v-3.309c0-2.005-0.95-3.987-2.851-5.947
		c-1.9-1.959-2.851-4.393-2.851-7.301h3.924c0.009,2.179,0.959,4.38,2.851,6.604c1.892,2.224,2.841,4.589,2.851,7.096V43.042z"/>
</g>
<g>
	<g>
		<path fill="#FFFFFF" d="M37.103,16.67c11.394,0,20.663,9.27,20.663,20.663s-9.27,20.663-20.663,20.663s-20.663-9.27-20.663-20.663
			S25.709,16.67,37.103,16.67 M37.103,11.67c-14.173,0-25.663,11.489-25.663,25.663s11.49,25.663,25.663,25.663
			s25.663-11.489,25.663-25.663S51.276,11.67,37.103,11.67L37.103,11.67z"/>
	</g>
	
		<line fill="none" stroke="#FFFFFF" stroke-width="4" stroke-linecap="round" stroke-miterlimit="10" x1="30.833" y1="43.5" x2="52.833" y2="21.5"/>
	
		<line fill="none" stroke="#FFFFFF" stroke-width="4" stroke-linecap="round" stroke-miterlimit="10" x1="21.274" y1="53.058" x2="26.895" y2="47.438"/>
	
		<line fill="none" stroke="#FFFFFF" stroke-width="4" stroke-linecap="round" stroke-miterlimit="10" x1="21.587" y1="21.812" x2="47.212" y2="47.438"/>
</g>
</svg>
