<?xml version="1.0" encoding="utf-8"?>
<!-- Generator: Adobe Illustrator 16.0.0, SVG Export Plug-In . SVG Version: 6.00 Build 0)  -->
<!DOCTYPE svg PUBLIC "-//W3C//DTD SVG 1.1//EN" "http://www.w3.org/Graphics/SVG/1.1/DTD/svg11.dtd">
<svg xmlns:xlink="http://www.w3.org/1999/xlink" version="1.1" id="Layer_1" xmlns="http://www.w3.org/2000/svg" x="0px" y="0px"
	 width="30px" height="32px" viewBox="0 0 30 32" enable-background="new 0 0 30 32" xml:space="preserve">
<g>
	<g>
		<path d="M24.837,1H13.672c-0.498,0-0.974,0.197-1.325,0.551l-8.51,8.508c-0.352,0.352-0.549,0.83-0.549,1.326v17.742
			c0,1.035,0.84,1.873,1.875,1.873h19.674c1.035,0,1.875-0.838,1.875-1.873V2.875C26.712,1.84,25.872,1,24.837,1z M12.534,4.014
			v6.172H6.362L12.534,4.014z M24.837,29.127H5.163V11.436h7.996c0.346,0,0.624-0.279,0.624-0.625V2.875h11.054V29.127z"/>
		<path d="M8.003,14.76c-0.345,0-0.625,0.279-0.625,0.625s0.28,0.625,0.625,0.625h13.514c0.344,0,0.625-0.279,0.625-0.625
			s-0.281-0.625-0.625-0.625H8.003z"/>
		<path d="M8.003,19.35h6.757c0.345,0,0.625-0.281,0.625-0.625c0-0.346-0.28-0.625-0.625-0.625H8.003
			c-0.345,0-0.625,0.279-0.625,0.625C7.378,19.068,7.658,19.35,8.003,19.35z"/>
		<path d="M18.076,18.1c-0.347,0-0.625,0.279-0.625,0.625c0,0.344,0.278,0.625,0.625,0.625h3.681c0.345,0,0.625-0.281,0.625-0.625
			c0-0.346-0.28-0.625-0.625-0.625H18.076z"/>
		<path d="M8.003,22.688h13.514c0.344,0,0.625-0.279,0.625-0.625s-0.281-0.625-0.625-0.625H8.003c-0.345,0-0.625,0.279-0.625,0.625
			S7.658,22.688,8.003,22.688z"/>
		<path d="M21.757,24.777H15c-0.345,0-0.625,0.279-0.625,0.623c0,0.346,0.28,0.627,0.625,0.627h6.757
			c0.345,0,0.625-0.281,0.625-0.627C22.382,25.057,22.102,24.777,21.757,24.777z"/>
		<path d="M11.684,24.777H8.003c-0.345,0-0.625,0.279-0.625,0.623c0,0.346,0.28,0.627,0.625,0.627h3.681
			c0.345,0,0.625-0.281,0.625-0.627C12.309,25.057,12.028,24.777,11.684,24.777z"/>
	</g>
</g>
</svg>
