<?xml version="1.0" encoding="utf-8"?>
<!-- Generator: Adobe Illustrator 16.0.0, SVG Export Plug-In . SVG Version: 6.00 Build 0)  -->
<!DOCTYPE svg PUBLIC "-//W3C//DTD SVG 1.1//EN" "http://www.w3.org/Graphics/SVG/1.1/DTD/svg11.dtd">
<svg xmlns:xlink="http://www.w3.org/1999/xlink" version="1.1" id="Layer_1" xmlns="http://www.w3.org/2000/svg" x="0px" y="0px"
	 width="39px" height="37px" viewBox="0 0 39 37" enable-background="new 0 0 39 37" xml:space="preserve">
<g>
	<path fill="none" d="M21.353,19.21c0,0.208-0.065,0.416-0.12,0.625c0.066-0.172,0.12-0.354,0.12-0.484
		C21.353,19.307,21.353,19.26,21.353,19.21z"/>
	<path fill="none" d="M0.361,5h20.729c1.054,0,2.601,0.621,3.985,2.982C25.488,8.685,25.787,10,25.975,10h3.834
		c-0.229-1-0.668-2.151-1.451-3.521C26.596,3.401,23.982,2,20.588,2H0.863C0.567,2,0.284,1.865,0,1.884V4.78
		C0.125,4.765,0.247,5,0.361,5z"/>
	<path fill="none" d="M28.561,33.414c0.197-0.25,0.325-0.839,0.406-1.178c0.063-0.259,0.103-0.667,0.093-0.947
		c-0.007-0.222-0.036-0.517-0.089-0.739l-1.59-6.316C26.912,22.266,24.795,21,22.758,21h-1.606c-0.565,5-5.025,8.67-10.282,8.67
		c-5.311,0-9.648-4.212-10.132-9.354c-0.017-0.158-0.009-0.054,0.003-0.214C0.703,20.406,0.639,21,0.66,21H0v14h26.434
		C27.334,35,28.089,34.004,28.561,33.414z"/>
	<path fill="none" d="M10.832,27.376c4.553,0,8.259-3.67,8.259-8.185s-3.704-8.186-8.259-8.186s-8.26,3.674-8.26,8.186
		C2.572,23.704,6.277,27.376,10.832,27.376z M6.848,24.391c-0.697,0-1.262-0.562-1.262-1.252c0-0.691,0.564-1.253,1.262-1.253
		s1.264,0.562,1.264,1.253C8.111,23.829,7.545,24.391,6.848,24.391z M17.727,19.191c0,0.691-0.564,1.252-1.262,1.252
		s-1.262-0.561-1.262-1.252s0.564-1.251,1.262-1.251S17.727,18.5,17.727,19.191z M14.814,13.993c0.698,0,1.263,0.56,1.263,1.25
		c0,0.691-0.564,1.252-1.263,1.252c-0.697,0-1.263-0.561-1.263-1.252C13.552,14.553,14.117,13.993,14.814,13.993z M14.814,21.886
		c0.698,0,1.263,0.562,1.263,1.253c0,0.69-0.564,1.252-1.263,1.252c-0.697,0-1.263-0.562-1.263-1.252
		C13.552,22.447,14.117,21.886,14.814,21.886z M10.832,12.355c0.697,0,1.262,0.562,1.262,1.253c0,0.689-0.564,1.252-1.262,1.252
		c-0.699,0-1.264-0.562-1.264-1.252C9.568,12.917,10.133,12.355,10.832,12.355z M10.832,23.522c0.697,0,1.262,0.562,1.262,1.251
		c0,0.69-0.564,1.253-1.262,1.253c-0.699,0-1.264-0.562-1.264-1.253C9.568,24.084,10.133,23.522,10.832,23.522z M6.848,13.993
		c0.697,0,1.264,0.56,1.264,1.25c0,0.691-0.566,1.252-1.264,1.252s-1.262-0.561-1.262-1.252C5.586,14.553,6.15,13.993,6.848,13.993z
		 M3.938,19.191c0-0.691,0.564-1.251,1.261-1.251c0.697,0,1.264,0.56,1.264,1.251s-0.566,1.252-1.264,1.252
		C4.502,20.443,3.938,19.883,3.938,19.191z"/>
	<path fill="#FFFFFF" d="M33.777,20h1.84C37.352,20,39,17.814,39,16.096V12.5c0-1.719-1.649-2.5-3.383-2.5H31.76
		c-0.021,0-0.039-0.363-0.062-0.462c-0.268-1.051-0.762-2.48-1.635-4.003C27.958,1.858,24.682,0,20.588,0H0.863
		C0.568,0,0.287-0.073,0-0.054v1.938C0.284,1.865,0.567,2,0.863,2h19.725c3.395,0,6.008,1.401,7.77,4.479
		C29.141,7.849,29.58,9,29.809,10h-3.834c-0.188,0-0.486-1.315-0.898-2.018C23.691,5.621,22.145,5,21.091,5H0.361
		C0.247,5,0.125,4.765,0,4.78v1.972C0.117,6.717,0.238,7,0.361,7h20.729c0.978,0,1.786,1.09,2.291,1.952
		c0.624,1.063,0.948,2.242,0.95,2.253L24.539,12h7.51h0.072h3.496C36.269,12,37,11.853,37,12.5v3.596C37,16.741,36.269,18,35.617,18
		h-1.84c-1.732,0-3.145,1.283-3.145,3c0,1.721,1.41,3,3.145,3h1.84c0.654,0,1.183,0.855,1.183,1.5c0,0.646-0.531,1.5-1.183,1.5H34v2
		h1.617c1.734,0,3.145-1.782,3.145-3.5c0-1.719-1.41-3.5-3.145-3.5h-1.84c-0.653,0-1.182-0.354-1.182-1
		C32.596,20.355,33.124,20,33.777,20z"/>
	<rect x="24" y="14" fill="#FFFFFF" width="8" height="2"/>
	<path fill="#FFFFFF" d="M0.66,21c-0.021,0,0.043-0.682,0.08-0.987c-0.012,0.161-0.02,0.145-0.003,0.303
		c0.483,5.143,4.821,9.442,10.132,9.442c5.257,0,9.717-3.758,10.282-8.758h1.606c2.037,0,4.154,1.23,4.623,3.199l1.59,6.457
		c0.053,0.223,0.082,0.361,0.089,0.583c0.01,0.281-0.029,0.509-0.093,0.767c-0.081,0.34-0.209,1.18-0.406,1.431
		C28.089,34.026,27.334,35,26.434,35H0v2h26.432c1.512,0,2.814-1.307,3.667-2.371c0.852-1.064,1.127-2.886,0.78-4.347l-1.591-6.418
		C28.615,21.041,25.686,19,22.758,19h-1.709c-0.005,0-0.021-0.428-0.026-0.48c-0.505-5.121-4.884-9.297-10.181-9.297
		s-9.67,3.934-10.174,9.058c-0.006,0.05-0.006,0.063-0.012,0.118c-0.001,0.006,0.037-0.006,0.037,0.004
		c-0.009,0.108-0.009,0.211-0.008,0.323c-0.004-0.156-0.005,0.029,0.006-0.018C0.693,18.699,0.652,19,0.655,19H0v2H0.66z
		 M21.353,19.21c0,0.05,0,0.097,0,0.141c0,0.131-0.054,0.312-0.12,0.484C21.287,19.626,21.353,19.418,21.353,19.21z M21.201,19.156
		c-0.002-0.078-0.014-0.164-0.031-0.248C21.188,18.992,21.199,19.078,21.201,19.156z M10.832,11.005
		c4.555,0,8.259,3.671,8.259,8.186s-3.706,8.185-8.259,8.185c-4.555,0-8.26-3.672-8.26-8.185
		C2.572,14.68,6.277,11.005,10.832,11.005z"/>
	<ellipse fill="#FFFFFF" cx="10.832" cy="13.608" rx="1.262" ry="1.252"/>
	<ellipse fill="#FFFFFF" cx="10.832" cy="24.774" rx="1.262" ry="1.252"/>
	<ellipse fill="#FFFFFF" cx="16.465" cy="19.191" rx="1.262" ry="1.252"/>
	<ellipse fill="#FFFFFF" cx="5.2" cy="19.191" rx="1.262" ry="1.251"/>
	<ellipse fill="#FFFFFF" cx="14.814" cy="23.138" rx="1.263" ry="1.252"/>
	<ellipse fill="#FFFFFF" cx="6.848" cy="15.244" rx="1.264" ry="1.251"/>
	<ellipse fill="#FFFFFF" cx="6.848" cy="23.138" rx="1.262" ry="1.252"/>
	<ellipse fill="#FFFFFF" cx="14.814" cy="15.244" rx="1.263" ry="1.251"/>
</g>
</svg>
