<?xml version="1.0" encoding="utf-8"?>
<!-- Generator: Adobe Illustrator 16.0.0, SVG Export Plug-In . SVG Version: 6.00 Build 0)  -->
<!DOCTYPE svg PUBLIC "-//W3C//DTD SVG 1.1//EN" "http://www.w3.org/Graphics/SVG/1.1/DTD/svg11.dtd">
<svg xmlns:xlink="http://www.w3.org/1999/xlink" version="1.1" id="Layer_1" xmlns="http://www.w3.org/2000/svg" x="0px" y="0px"
	 width="30px" height="32px" viewBox="0 0 30 32" enable-background="new 0 0 30 32" xml:space="preserve">
<g>
	<g>
		<path d="M15,15.382c4.24,0,7.69-3.45,7.69-7.69C22.69,3.451,19.24,0,15,0S7.31,3.451,7.31,7.692
			C7.31,11.932,10.76,15.382,15,15.382z M15,2.009c3.134,0,5.684,2.549,5.684,5.683c0,3.133-2.55,5.682-5.684,5.682
			s-5.684-2.549-5.684-5.682C9.316,4.558,11.866,2.009,15,2.009z"/>
		<path d="M28.25,23.344c-1.924-3.324-4.999-5.789-8.657-6.94c-0.475-0.149-0.987,0.072-1.205,0.519
			c-0.768,1.584-1.933,2.914-3.388,3.879c-1.455-0.965-2.62-2.295-3.389-3.879c-0.217-0.447-0.729-0.668-1.204-0.519
			c-3.658,1.151-6.733,3.616-8.657,6.94c-0.181,0.311-0.181,0.695,0,1.006C4.48,29.069,9.559,32,15,32s10.52-2.931,13.25-7.65
			C28.431,24.039,28.431,23.655,28.25,23.344z M19.772,18.593c0.555,0.212,1.089,0.463,1.605,0.745
			c-0.814,1.411-1.967,3.088-3.427,4.384c-0.165-0.143-0.336-0.296-0.511-0.455c-0.358-0.324-0.726-0.653-1.107-0.95
			C17.737,21.338,18.91,20.076,19.772,18.593z M13.667,22.317c-0.382,0.297-0.749,0.626-1.107,0.95
			c-0.175,0.158-0.346,0.312-0.511,0.455c-1.46-1.295-2.612-2.973-3.428-4.384c0.518-0.282,1.052-0.533,1.606-0.745
			C11.09,20.076,12.262,21.338,13.667,22.317z M15.67,29.97v-4.426c0-0.37-0.3-0.669-0.67-0.669s-0.67,0.3-0.67,0.669v4.426
			c-4.276-0.218-8.223-2.506-10.535-6.123c0.969-1.517,2.224-2.808,3.686-3.809c0.952,1.644,2.343,3.63,4.144,5.079
			c0.242,0.194,0.585,0.196,0.83,0.006c0.331-0.258,0.657-0.551,1.002-0.862c0.507-0.456,1.027-0.926,1.544-1.252
			c0.517,0.326,1.037,0.796,1.544,1.252c0.345,0.311,0.671,0.604,1.001,0.862c0.121,0.094,0.267,0.141,0.411,0.141
			c0.149,0,0.297-0.05,0.42-0.147c1.801-1.449,3.191-3.435,4.144-5.079c1.461,1.001,2.717,2.292,3.686,3.809
			C23.893,27.464,19.946,29.752,15.67,29.97z"/>
	</g>
</g>
</svg>
