<?xml version="1.0" encoding="utf-8"?>
<!-- Generator: Adobe Illustrator 16.0.0, SVG Export Plug-In . SVG Version: 6.00 Build 0)  -->
<!DOCTYPE svg PUBLIC "-//W3C//DTD SVG 1.1//EN" "http://www.w3.org/Graphics/SVG/1.1/DTD/svg11.dtd">
<svg xmlns:xlink="http://www.w3.org/1999/xlink" version="1.1" id="Layer_1" xmlns="http://www.w3.org/2000/svg" x="0px" y="0px"
	 width="25px" height="34.225px" viewBox="0 0 25 34.225" enable-background="new 0 0 25 34.225" xml:space="preserve">
<g>
	<path fill="#E06B3D" d="M21.413,7.909H3.587c-1.189,0-2.149,0.96-2.149,2.149v22.014c0,1.186,0.96,2.152,2.149,2.152h17.826
		c1.189,0,2.149-0.967,2.149-2.152V10.059C23.562,8.869,22.603,7.909,21.413,7.909z M21.413,32.073H3.587V10.059h17.826V32.073z"/>
	<path fill="#E06B3D" d="M23.925,4.031h-6.436C16.995,1.731,14.945,0,12.501,0C10.055,0,8.005,1.731,7.51,4.031H1.075
		C0.483,4.031,0,4.514,0,5.105c0,0.598,0.483,1.075,1.075,1.075h22.85C24.517,6.181,25,5.703,25,5.105
		C25,4.514,24.517,4.031,23.925,4.031z M12.501,2.15c1.248,0,2.318,0.781,2.751,1.881H9.748C10.181,2.932,11.251,2.15,12.501,2.15z"
		/>
	<path fill="#E06B3D" d="M7.323,29.319c0.395,0,0.715-0.32,0.715-0.715V13.69c0-0.395-0.32-0.72-0.715-0.72s-0.716,0.325-0.716,0.72
		v14.914C6.607,28.999,6.929,29.319,7.323,29.319z"/>
	<path fill="#E06B3D" d="M12.302,29.319c0.395,0,0.715-0.32,0.715-0.715V13.69c0-0.395-0.32-0.72-0.715-0.72
		c-0.396,0-0.721,0.325-0.721,0.72v14.914C11.581,28.999,11.906,29.319,12.302,29.319z"/>
	<path fill="#E06B3D" d="M17.278,29.319c0.395,0,0.716-0.32,0.716-0.715v-9.227c0-0.4-0.321-0.72-0.716-0.72
		c-0.399,0-0.72,0.319-0.72,0.72v9.227C16.559,28.999,16.879,29.319,17.278,29.319z"/>
	<path fill="#E06B3D" d="M17.278,16.657c0.395,0,0.716-0.319,0.716-0.716V13.69c0-0.395-0.321-0.72-0.716-0.72
		c-0.399,0-0.72,0.325-0.72,0.72v2.251C16.559,16.338,16.879,16.657,17.278,16.657z"/>
</g>
</svg>
