<?xml version="1.0" encoding="utf-8"?>
<!-- Generator: Adobe Illustrator 16.0.0, SVG Export Plug-In . SVG Version: 6.00 Build 0)  -->
<!DOCTYPE svg PUBLIC "-//W3C//DTD SVG 1.1//EN" "http://www.w3.org/Graphics/SVG/1.1/DTD/svg11.dtd">
<svg xmlns:xlink="http://www.w3.org/1999/xlink" version="1.1" id="Layer_1" xmlns="http://www.w3.org/2000/svg" x="0px" y="0px"
	 width="53px" height="52.997px" viewBox="0 0 53 52.997" enable-background="new 0 0 53 52.997" xml:space="preserve">
<g>
	<ellipse fill="#30D667" cx="26.5" cy="26.499" rx="26.084" ry="26.498"/>
	<g>
		<path fill="#FFFFFF" stroke="#30D667" stroke-width="1.2324" stroke-miterlimit="10" d="M20.574,37.28h-5.643
			c-1.041,0-1.881-0.855-1.881-1.91c0-1.056,0.84-1.912,1.881-1.912h4.864l10.736-10.905c0.735-0.747,1.924-0.747,2.659,0
			l0.552,0.559v-4.94h-4.864l0.551,0.559c0.735,0.748,0.735,1.956,0,2.703l-9.406,9.556c-0.736,0.747-1.924,0.747-2.66,0
			s-0.736-1.956,0-2.703l8.076-8.204l-2.432-2.471c-0.538-0.546-0.7-1.368-0.409-2.083c0.291-0.713,0.979-1.179,1.739-1.179h11.286
			c1.041,0,1.881,0.855,1.881,1.91v11.466c0,0.773-0.457,1.471-1.16,1.767c-0.704,0.296-1.511,0.132-2.051-0.415l-2.433-2.471
			l-9.956,10.116C21.552,37.08,21.074,37.28,20.574,37.28L20.574,37.28z"/>
	</g>
</g>
</svg>
