<?xml version="1.0" encoding="utf-8"?>
<!-- Generator: Adobe Illustrator 16.0.0, SVG Export Plug-In . SVG Version: 6.00 Build 0)  -->
<!DOCTYPE svg PUBLIC "-//W3C//DTD SVG 1.1//EN" "http://www.w3.org/Graphics/SVG/1.1/DTD/svg11.dtd">
<svg xmlns:xlink="http://www.w3.org/1999/xlink" version="1.1" id="Layer_1" xmlns="http://www.w3.org/2000/svg" x="0px" y="0px"
	 width="30px" height="32px" viewBox="0 0 30 32" enable-background="new 0 0 30 32" xml:space="preserve">
<g>
	<g>
		<path d="M29.725,25.543L16.731,12.549c0.341-0.369,0.333-0.943-0.025-1.301l-1.085-1.086c0.405-2.494-0.397-5.008-2.2-6.809
			c-1.483-1.484-3.457-2.301-5.555-2.301c-0.981,0-1.941,0.18-2.852,0.533C4.719,1.701,4.501,1.957,4.436,2.268
			S4.466,2.9,4.69,3.125l4.247,4.246L6.442,9.867L2.145,5.57C1.925,5.35,1.607,5.252,1.301,5.312
			c-0.308,0.061-0.563,0.27-0.685,0.559c-1.239,2.955-0.575,6.33,1.69,8.596c1.483,1.484,3.456,2.301,5.555,2.301
			c0.478,0,0.954-0.043,1.422-0.129l1.017,1.016c0.357,0.357,0.933,0.367,1.301,0.025l12.994,12.994
			c0.183,0.184,0.423,0.273,0.663,0.273s0.479-0.09,0.664-0.273l3.803-3.805C30.092,26.504,30.092,25.908,29.725,25.543z
			 M25.258,28.682L12.441,15.865l1.262-1.26c0.245-0.246,0.245-0.641,0-0.885c-0.244-0.246-0.641-0.246-0.885,0l-1.899,1.898
			l-0.671-0.672c-0.234-0.234-0.575-0.328-0.896-0.244c-0.485,0.123-0.987,0.188-1.49,0.188c-1.597,0-3.099-0.623-4.227-1.752
			c-1.368-1.367-1.969-3.264-1.688-5.113l3.832,3.832c0.367,0.367,0.961,0.367,1.328,0l3.804-3.803
			c0.002-0.002,0.022-0.023,0.023-0.025c0.362-0.367,0.359-0.957-0.005-1.322l-3.74-3.738C7.412,2.943,7.638,2.93,7.866,2.93
			c1.597,0,3.098,0.621,4.227,1.752c1.468,1.467,2.063,3.553,1.596,5.58c-0.072,0.314,0.022,0.646,0.251,0.875l0.776,0.775
			c-0.342,0.367-0.332,0.943,0.025,1.301l12.992,12.992l-0.795,0.797L16.797,16.859c-0.244-0.244-0.641-0.244-0.886,0
			c-0.244,0.244-0.244,0.641,0,0.885l10.142,10.143L25.258,28.682z"/>
		<path d="M11.079,9.592l-2.495,2.496c-0.245,0.244-0.245,0.641,0,0.885c0.122,0.123,0.282,0.184,0.442,0.184
			s0.32-0.061,0.442-0.184l2.495-2.494c0.244-0.244,0.244-0.641,0-0.887C11.72,9.348,11.324,9.348,11.079,9.592z"/>
	</g>
</g>
</svg>
