<?xml version="1.0" encoding="utf-8"?>
<!-- Generator: Adobe Illustrator 16.0.0, SVG Export Plug-In . SVG Version: 6.00 Build 0)  -->
<!DOCTYPE svg PUBLIC "-//W3C//DTD SVG 1.1//EN" "http://www.w3.org/Graphics/SVG/1.1/DTD/svg11.dtd">
<svg xmlns:xlink="http://www.w3.org/1999/xlink" version="1.1" id="Layer_1" xmlns="http://www.w3.org/2000/svg" x="0px" y="0px"
	 width="50.971px" height="51px" viewBox="0 0 50.971 51" enable-background="new 0 0 50.971 51" xml:space="preserve">
<g>
	<path fill="#FFCE00" d="M25.471,4c11.855,0,21.5,9.645,21.5,21.5S37.326,47,25.471,47s-21.5-9.645-21.5-21.5S13.615,4,25.471,4
		 M25.471,0c-14.083,0-25.5,11.417-25.5,25.5S11.388,51,25.471,51s25.5-11.416,25.5-25.5S39.554,0,25.471,0L25.471,0z"/>
	<g>
		<path fill="#E06B3D" d="M10.714,29.681c-0.701,0-1.328-0.496-1.47-1.211c-0.201-1.017-0.303-2.066-0.303-3.118
			c0-8.85,7.2-16.05,16.051-16.05c2.739,0,5.444,0.703,7.822,2.033c0.723,0.404,0.981,1.318,0.577,2.042
			c-0.405,0.724-1.32,0.982-2.042,0.577c-1.932-1.081-4.13-1.651-6.357-1.651c-7.196,0-13.051,5.854-13.051,13.05
			c0,0.857,0.083,1.711,0.246,2.538c0.16,0.813-0.368,1.602-1.181,1.762C10.908,29.671,10.811,29.681,10.714,29.681z"/>
		<path fill="#E06B3D" d="M24.992,41.402c-4.729,0-9.196-2.072-12.256-5.685c-0.535-0.632-0.457-1.579,0.175-2.114
			c0.635-0.535,1.58-0.455,2.114,0.176c2.488,2.938,6.121,4.623,9.967,4.623c7.195,0,13.05-5.854,13.05-13.05
			c0-2.147-0.532-4.275-1.539-6.153c-0.392-0.73-0.116-1.639,0.613-2.031c0.73-0.391,1.64-0.117,2.031,0.614
			c1.239,2.312,1.895,4.93,1.895,7.57C41.042,34.203,33.842,41.402,24.992,41.402z"/>
	</g>
	<circle fill="#3F3F3F" cx="25.471" cy="25.5" r="6"/>
</g>
</svg>
