<?xml version="1.0" encoding="utf-8"?>
<!-- Generator: Adobe Illustrator 16.0.0, SVG Export Plug-In . SVG Version: 6.00 Build 0)  -->
<!DOCTYPE svg PUBLIC "-//W3C//DTD SVG 1.1//EN" "http://www.w3.org/Graphics/SVG/1.1/DTD/svg11.dtd">
<svg xmlns:xlink="http://www.w3.org/1999/xlink" version="1.1" id="Layer_1" xmlns="http://www.w3.org/2000/svg" x="0px" y="0px"
	 width="44px" height="38px" viewBox="0 0 44 38" enable-background="new 0 0 44 38" xml:space="preserve">
<g>
	<path fill="#FFFFFF" d="M34.707,35.551L16.854,17.831V8.75l0.473-0.468c0.426-0.365,0.476-1,0.107-1.418
		c-0.37-0.421-1.012-0.465-1.437-0.101c-0.036,0.03-0.069,0.064-0.1,0.101l-0.76,0.757c-0.19,0.191-0.284,0.449-0.284,0.717v9.893
		c0,0.037,0,0.073,0,0.111c0,0.229,0.119,0.442,0.285,0.606l19.003,18.754c0.396,0.396,1.04,0.4,1.44,0.01
		c0.003-0.003-0.14-0.007-0.136-0.01l8.407-8.442V26.39L34.707,35.551z"/>
	<path fill="#FFFFFF" d="M43.172,19.401L32.949,29.722c-0.202,0.186-0.095,0.444-0.095,0.717c0,0.032,0,0.064,0,0.097
		c0,0.553,0.385,0.965,0.945,0.92c0.254-0.021,0.265-0.132,0.438-0.314l9.616-9.703v-2.309
		C43.854,19.098,43.401,19.179,43.172,19.401z"/>
	<path fill="#FFFFFF" d="M32.245,2.051c-0.188-0.189-0.299-0.181-0.566-0.181H21.643c-0.271,0-0.533-0.021-0.726,0.167l-2.182,2.088
		l-0.024-0.004c0.052,0.063,0.083,0.09,0.091,0.1c0.248,0.335,0.173,0.795-0.165,1.04c-0.136,0.098-0.292,0.141-0.448,0.141
		c-0.187,0-0.36-0.087-0.502-0.217l-0.257,0.273l3.977,4.091c0.102,0.229,0.287,0.409,0.517,0.51l2.236,2.205
		c0.402,0.395,1.054,0.393,1.453-0.003c0.4-0.396,0.4-1.035,0-1.431l-1.635-1.612c0.986-0.41,2.169-0.218,2.977,0.58
		c1.067,1.051,1.067,2.722,0,3.774c-1.066,1.053-2.775,1.053-3.844,0c-0.458-0.452-0.705-1.011-0.768-1.599
		c-0.017-0.156-0.024-0.312-0.014-0.468c0.039-0.555-0.387-1.036-0.95-1.074c-0.564-0.038-1.051,0.381-1.091,0.937
		c-0.019,0.273,0,0.555,0.028,0.827c0.112,1.025,0.562,2.029,1.356,2.811c1.847,1.821,4.875,1.821,6.722,0s1.847-4.807,0-6.627
		c-1.597-1.574-4.075-1.781-5.912-0.633l-2.292-2.144l1.873-1.731h9.183l12.609,12.488v-2.846L32.245,2.051z"/>
	<path fill="#FFFFFF" d="M36.656,12.631c-0.035,0.031-0.069,0.065-0.101,0.101L26.087,23.053c-0.195,0.188-0.307,0.447-0.308,0.716
		c-0.002,0.032-0.002,0.064,0,0.097c0.046,0.553,0.539,0.966,1.101,0.92c0.252-0.02,0.487-0.133,0.66-0.314l10.453-10.321
		c0.427-0.364,0.472-1,0.104-1.419C37.727,12.312,37.083,12.268,36.656,12.631z"/>
	<path fill="#FFFFFF" d="M30.826,25.574c0.054,0.554,0.551,0.959,1.112,0.906c0.24-0.022,0.465-0.129,0.634-0.3l7.156-7.054
		c0.426-0.365,0.471-1,0.101-1.42c-0.369-0.419-1.013-0.464-1.438-0.101c-0.037,0.031-0.07,0.064-0.103,0.101l-7.155,7.042
		C30.907,24.961,30.794,25.267,30.826,25.574z"/>
	<path fill="#FFFFFF" d="M14.009,0.923c-3.68-1.351-9.04-1.89-13.67,3.226C0.06,4.457,0.086,4.932,0.4,5.207
		c0.312,0.276,0.792,0.249,1.073-0.061c4.059-4.482,8.769-4.007,12.005-2.818c2.734,1.003,4.061,2.715,4.098,2.762
		c0.03,0.04,0.074,0.06,0.111,0.092l1.024-1.092C18.339,3.635,16.823,1.956,14.009,0.923z"/>
	<path fill="#FFFFFF" d="M18.637,5.252c0.338-0.244,0.413-0.712,0.165-1.047c-0.008-0.011-0.039-0.052-0.091-0.115l-1.024,1.092
		c0.143,0.13,0.315,0.215,0.502,0.215C18.345,5.397,18.501,5.35,18.637,5.252z"/>
</g>
</svg>
