<?xml version="1.0" encoding="utf-8"?>
<!-- Generator: Adobe Illustrator 16.0.0, SVG Export Plug-In . SVG Version: 6.00 Build 0)  -->
<!DOCTYPE svg PUBLIC "-//W3C//DTD SVG 1.1//EN" "http://www.w3.org/Graphics/SVG/1.1/DTD/svg11.dtd">
<svg xmlns:xlink="http://www.w3.org/1999/xlink" version="1.1" id="Layer_1" xmlns="http://www.w3.org/2000/svg" x="0px" y="0px"
	 width="51px" height="39px" viewBox="0 0 51 39" enable-background="new 0 0 51 39" xml:space="preserve">
<g>
	<g transform="translate(0,-952.36218)">
		<path fill="#FFCE00" d="M21.039,962.404c0.101,0.228,0.283,0.409,0.51,0.511l2.207,2.206c0.396,0.396,1.039,0.394,1.434-0.003
			c0.395-0.396,0.395-1.035,0-1.432l-1.613-1.613c0.974-0.41,2.141-0.218,2.937,0.58c1.053,1.052,1.053,2.725,0,3.777
			c-1.052,1.054-2.739,1.054-3.792,0c-0.452-0.452-0.695-1.012-0.758-1.6c-0.017-0.156-0.024-0.312-0.014-0.469
			c0.038-0.556-0.382-1.037-0.938-1.075c-0.557-0.038-1.037,0.382-1.076,0.938c-0.019,0.273,0,0.556,0.027,0.827
			c0.11,1.026,0.555,2.03,1.338,2.813c1.822,1.822,4.811,1.822,6.632,0c1.822-1.822,1.822-4.811,0-6.633
			c-1.574-1.575-4.021-1.782-5.833-0.634l-2.262-2.262l1.848-1.849h9.061l17.748,17.748l-14.178,14.19L16.57,970.692v-9.088
			l0.455-0.469c0.42-0.365,0.465-1.001,0.101-1.42c-0.365-0.421-1.001-0.465-1.421-0.101c-0.035,0.03-0.069,0.064-0.1,0.101
			l-0.759,0.758c-0.188,0.191-0.292,0.449-0.29,0.718v9.9c-0.001,0.037-0.001,0.073,0,0.111c0.024,0.229,0.127,0.442,0.29,0.606
			l18.754,18.769c0.391,0.395,1.029,0.4,1.424,0.01c0.004-0.004,0.008-0.008,0.012-0.01l15.609-15.625
			c0.391-0.394,0.391-1.028,0-1.421l-18.768-18.755c-0.186-0.189-0.439-0.299-0.703-0.304h-9.902
			c-0.268-0.002-0.526,0.102-0.717,0.29l-2.152,2.15l-1.289,1.394L21.039,962.404z M25.355,976.732
			c0.045,0.554,0.531,0.967,1.085,0.921c0.248-0.02,0.48-0.133,0.652-0.314l10.314-10.329c0.42-0.364,0.465-1,0.102-1.42
			c-0.365-0.42-1.002-0.465-1.422-0.101c-0.035,0.031-0.068,0.065-0.1,0.101l-10.33,10.329c-0.192,0.188-0.302,0.447-0.303,0.717
			C25.354,976.667,25.354,976.7,25.355,976.732L25.355,976.732z M30.333,978.442c0.053,0.554,0.545,0.96,1.098,0.906
			c0.238-0.022,0.459-0.129,0.625-0.3l7.062-7.06c0.42-0.365,0.465-1.001,0.1-1.421s-1-0.465-1.42-0.101
			c-0.037,0.031-0.07,0.064-0.102,0.101l-7.061,7.047C30.414,977.828,30.302,978.134,30.333,978.442L30.333,978.442z
			 M32.029,983.406c0.047,0.555,0.533,0.967,1.086,0.922c0.25-0.021,0.482-0.133,0.652-0.314l10.314-10.316
			c0.396-0.393,0.4-1.031,0.008-1.428c-0.393-0.396-1.031-0.398-1.428-0.006l-10.314,10.33c-0.199,0.186-0.312,0.443-0.318,0.717
			C32.029,983.342,32.029,983.375,32.029,983.406z"/>
	</g>
	<path fill="#FFCE00" d="M17.864,5.886c-0.23,0-0.458-0.106-0.605-0.307c-0.035-0.047-1.345-1.761-4.042-2.765
		c-3.192-1.188-7.842-1.666-11.846,2.82c-0.275,0.311-0.749,0.336-1.06,0.061c-0.309-0.275-0.336-0.75-0.06-1.059
		c4.567-5.118,9.856-4.582,13.488-3.229c3.167,1.18,4.667,3.2,4.729,3.285c0.244,0.335,0.172,0.805-0.164,1.049
		C18.173,5.839,18.019,5.886,17.864,5.886z"/>
</g>
</svg>
