<?xml version="1.0" encoding="utf-8"?>
<!-- Generator: Adobe Illustrator 16.0.0, SVG Export Plug-In . SVG Version: 6.00 Build 0)  -->
<!DOCTYPE svg PUBLIC "-//W3C//DTD SVG 1.1//EN" "http://www.w3.org/Graphics/SVG/1.1/DTD/svg11.dtd">
<svg xmlns:xlink="http://www.w3.org/1999/xlink" version="1.1" id="Layer_1" xmlns="http://www.w3.org/2000/svg" x="0px" y="0px"
	 width="30px" height="32px" viewBox="0 0 30 32" enable-background="new 0 0 30 32" xml:space="preserve">
<g>
	<g>
		<path d="M19.637,11.127l-4.636-9.391l-4.635,9.391L0,12.633l7.501,7.309l-0.707,4.125c-0.021,0.074-0.035,0.152-0.035,0.234
			c0,0.475,0.385,0.861,0.859,0.861c0.426,0,0.776-0.311,0.846-0.717h0.004l0.873-5.102L3.685,13.83l7.818-1.137l3.498-7.086
			l3.497,7.086l2.794,0.406c0.016,0.004,0.033,0.004,0.049,0.006l0.053,0.008v-0.002c0.028,0.004,0.053,0.008,0.082,0.008
			c0.477,0,0.861-0.385,0.861-0.859c0-0.443-0.336-0.805-0.768-0.852L19.637,11.127z"/>
		<path d="M25.714,13.742l0.604,0.086l-5.658,5.516l1.336,7.789l-6.994-3.676l-8.46,4.447c-0.313,0.129-0.533,0.436-0.533,0.795
			c0,0.475,0.385,0.859,0.861,0.859c0.145,0,0.279-0.039,0.398-0.102l0,0l7.733-4.064l9.269,4.871L22.5,19.941l7.5-7.309
			l-3.979-0.578c-0.062-0.016-0.124-0.023-0.189-0.023c-0.476,0-0.861,0.385-0.861,0.861C24.97,13.326,25.294,13.684,25.714,13.742z
			"/>
	</g>
</g>
</svg>
