<?xml version="1.0" encoding="utf-8"?>
<!-- Generator: Adobe Illustrator 16.0.0, SVG Export Plug-In . SVG Version: 6.00 Build 0)  -->
<!DOCTYPE svg PUBLIC "-//W3C//DTD SVG 1.1//EN" "http://www.w3.org/Graphics/SVG/1.1/DTD/svg11.dtd">
<svg xmlns:xlink="http://www.w3.org/1999/xlink" version="1.1" id="Layer_1" xmlns="http://www.w3.org/2000/svg" x="0px" y="0px"
	 width="340px" height="10px" viewBox="0 0 340 10" enable-background="new 0 0 340 10" xml:space="preserve">
<g>
	<polygon fill="#FFFFFF" points="340,10.346 330.25,0.173 320,10.086 309.875,0.043 300,10.021 290,0.011 280,10.005 270,0.003 
		260,10.001 250,0 240,10 230,0 220,10 210,0 200,10 190,0 180,10 170,0 160,10 150,0 140,10 130,0 120,10 110.25,0 100,10 
		89.875,0 80,10 70,0 60,10 50,0 40,10 30,0 20,10 10,0.173 0,10.346 	"/>
</g>
</svg>
