<?xml version="1.0" encoding="utf-8"?>
<!-- Generator: Adobe Illustrator 16.0.0, SVG Export Plug-In . SVG Version: 6.00 Build 0)  -->
<!DOCTYPE svg PUBLIC "-//W3C//DTD SVG 1.1//EN" "http://www.w3.org/Graphics/SVG/1.1/DTD/svg11.dtd">
<svg version="1.1" id="Layer_1" xmlns="http://www.w3.org/2000/svg" xmlns:xlink="http://www.w3.org/1999/xlink" x="0px" y="0px"
	 width="70px" height="70px" viewBox="0 0 70 70" enable-background="new 0 0 70 70" xml:space="preserve">
<g>
	<circle fill="#FFFFFF" cx="35" cy="35" r="34.608"/>
	<path fill="#D1D1D1" d="M35,70C15.701,70,0,54.299,0,35C0,15.701,15.701,0,35,0c19.3,0,35,15.701,35,35C70,54.299,54.299,70,35,70z
		 M35,0.774C16.133,0.774,0.783,16.128,0.783,35c0,18.872,15.35,34.226,34.216,34.226c18.867,0,34.216-15.354,34.216-34.226
		C69.215,16.128,53.867,0.774,35,0.774z"/>
</g>
<g transform="translate(0,-1036.3622)">
	<g>
		<path fill="#3F3F3F" d="M33.64,1052.602v2.743c-7.909,0.646-14.227,6.878-14.883,14.676h-2.788v2.681h2.788
			c0.658,7.795,6.976,14.024,14.883,14.672v2.748h2.719v-2.748c7.907-0.648,14.224-6.877,14.884-14.672h2.787v-2.681h-2.787
			c-0.657-7.798-6.974-14.03-14.884-14.676v-2.743H33.64z M35,1057.962c7.524,0,13.593,5.983,13.593,13.4
			c0,7.415-6.069,13.399-13.593,13.399s-13.593-5.984-13.593-13.399C21.407,1063.946,27.476,1057.962,35,1057.962z M35,1063.322
			c-4.488,0-8.156,3.617-8.156,8.041s3.668,8.038,8.156,8.038s8.156-3.614,8.156-8.038S39.487,1063.322,35,1063.322z M35,1066.002
			c3.019,0,5.438,2.384,5.438,5.361c0,2.976-2.419,5.36-5.438,5.36s-5.438-2.384-5.438-5.36
			C29.562,1068.386,31.981,1066.002,35,1066.002z"/>
	</g>
</g>
</svg>
