<?xml version="1.0" encoding="utf-8"?>
<!-- Generator: Adobe Illustrator 21.0.2, SVG Export Plug-In . SVG Version: 6.00 Build 0)  -->
<svg version="1.1" id="Layer_1" xmlns="http://www.w3.org/2000/svg" xmlns:xlink="http://www.w3.org/1999/xlink" x="0px" y="0px"
	 viewBox="0 0 370 177.1" style="enable-background:new 0 0 370 177.1;" xml:space="preserve">
<style type="text/css">
	.st0{fill:#FFCE00;}
	.st1{fill:#FFCE00;stroke:#DBB205;stroke-miterlimit:10;}
	.st2{fill:#3F3F3F;}
</style>
<g>
	<path class="st0" d="M241,57.8L241,57.8c0-1,0-1.1,0-1.5c0-31.1-25.1-56.3-56-56.3c-30.9,0-56,25.3-56,56.4c0,0.5,0,0.5,0,1.5h0
		L0,176.8h370L241,57.8z"/>
</g>
<g>
	<path class="st1" d="M168.5,69.6c1.2,1.7,7.5,11.5,10.7,15.8s17.2,5.3,20.7,3.1s5.2-4.1,5.8-8.5c0.7-4.3,0-18,0-18l-2.3-3l-3,1.4
		l-9.6-2.6l-3.5-1.4c0,0,1.2-6.1,0-8.4c-1.2-2.3-6.9-3.8-8.1,0s-0.9,16.3-0.9,16.3l-5.4-0.1L168.5,69.6z"/>
	<path class="st2" d="M168.8,54c0.8-0.2,1.3-0.9,1.1-1.7c-0.4-1.6-0.4-3.3-0.2-4.9c1.1-7.2,7.9-12.2,15.1-11.1
		c1.7,0.3,3.3,0.8,4.8,1.7c0.7,0.4,1.6,0.2,2-0.5s0.2-1.6-0.5-2c-1.8-1.1-3.7-1.8-5.8-2.1c-8.8-1.4-17,4.7-18.4,13.5
		c-0.3,2-0.2,4,0.2,6c0.1,0.7,0.7,1.1,1.4,1.1C168.5,54,168.6,54,168.8,54z"/>
	<path class="st2" d="M208.4,64.7c0-2-0.8-3.9-2.1-5.1c1.4-3.1,2.1-6.6,2.1-10.2c0-14.2-11.5-25.8-25.6-25.8
		c-14.1,0-25.6,11.6-25.6,25.8c0,8.5,4.1,16.1,10.5,20.8c0,0.3,0.1,0.5,0.2,0.8c0.2,0.8,0.6,1.6,1,2.2c2.3,3.5,4.9,7.5,7.5,11.4
		c2.6,3.9,6.4,6.4,11.3,7.3c0.6,0.1,1.2,0.2,1.7,0.3c0.3,0,0.5,0.1,0.8,0.1c0.2,0,0.4,0,0.6,0h2.9c0.2,0,0.5,0,0.7-0.1
		c0.3,0,0.5-0.1,0.8-0.1c0.4-0.1,0.9-0.1,1.3-0.2c6.1-1.1,10.8-5.7,11.8-11.8c0.2-1.2,0.3-2.5,0.3-3.7c0-4.6,0-5.2,0-7
		C208.4,68.3,208.4,67,208.4,64.7z M161.4,49.4c0-11.9,9.6-21.5,21.4-21.5c11.8,0,21.4,9.6,21.4,21.5c0,3-0.6,5.9-1.7,8.5
		c-0.2,0-0.4,0-0.6,0c-0.6,0-1.2,0.1-1.8,0.2c-0.7-0.6-1.5-1.1-2.4-1.4c-0.1,0-0.3-0.1-0.4-0.1c0.7-1.4,1.2-3,1.5-4.6
		c0.6-3.6-0.1-7.1-1.8-10.3c-0.4-0.7-1.2-0.9-1.9-0.6c-0.7,0.4-0.9,1.3-0.6,1.9c1.4,2.6,1.9,5.5,1.5,8.5c-0.3,1.9-0.9,3.5-1.9,5
		c-0.1,0-0.2,0-0.3,0.1c-0.6-0.5-1.3-1-2.1-1.3c-0.6-0.3-1.3-0.5-2-0.5h-0.1c0-1.8,0-3.6,0-5c0-3.5-2.3-6.2-5.7-6.7
		c-0.3-0.1-0.6-0.1-1-0.1c-3.4,0-6.3,2.7-6.6,6c0,0.4,0,0.8,0,1.1v10.9c-1.3-0.8-2.5-1.8-3.5-3c-0.5-0.6-1.4-0.7-2-0.2
		c-0.6,0.5-0.7,1.4-0.2,2c0.7,0.8,1.5,1.6,2.3,2.3c-1.7,0.4-3.3,1.6-4.2,3.1c0,0.1-0.1,0.1-0.1,0.2
		C164.1,61.4,161.4,55.7,161.4,49.4z M204.1,76.3c0,1-0.1,2-0.3,3c-0.7,4.3-4,7.6-8.3,8.3c-0.7,0.1-1.4,0.2-2,0.3c-1,0-1.9,0-2.9,0
		c-0.8-0.1-1.6-0.2-2.3-0.3c-3.6-0.7-6.5-2.4-8.5-5.4c-2.5-3.8-5-7.6-7.5-11.4c-0.2-0.3-0.4-0.7-0.5-1.1c-0.5-1.6,0.5-3.3,2.1-3.6
		c0.2,0,0.4-0.1,0.7-0.1c1,0,1.8,0.4,2.4,1.2c1,1.4,2,2.7,3,4.1c0.1,0.1,0.2,0.3,0.3,0.4c0,0,0.1,0,0.1,0c0-0.1,0-0.3,0-0.4
		c0-6.3,0-15.2,0-21.5c0-0.2,0-0.5,0-0.7c0.1-1.1,1.2-2.1,2.3-2.1c0.1,0,0.2,0,0.3,0c1.3,0.2,2.1,1.1,2.1,2.5c0,3.8,0,10.2,0,14
		c0,0.2,0,0.4,0.1,0.6c0.1,0.3,0.3,0.5,0.7,0.5c0,0,0,0,0.1,0c0.3,0,0.5-0.2,0.7-0.4c0.1-0.2,0.1-0.4,0.1-0.6c0-1.3,0-1.7,0-1.7
		l0,1.2c0,0,0-0.4,0-1.7c0-0.9,0.3-1.6,1-2.1c0.3-0.2,0.6-0.3,0.9-0.4c0.3,0,0.6,0,1,0c0,0,0.1,0.1,0.1,0.1c1.3,0.4,1.8,1.2,1.8,2.6
		c0,1.3,0,1.7,0,1.7V62c0,0,0,0.4,0,1.7c0,0.1,0,0.2,0,0.4c0.1,0.4,0.4,0.7,0.8,0.7c0,0,0.1,0,0.1,0c0.4,0,0.7-0.3,0.7-0.8
		c0,0,0,0,0,0c0,0,0-0.1,0-0.1c0-0.3,0-0.6,0-0.8c0-0.6,0.2-1.1,0.5-1.6c0.5-0.6,1.2-0.9,1.9-0.9c0.3,0,0.5,0,0.8,0.1
		c1,0.3,1.6,1.3,1.6,2.5c0,1.3,0,1.7,0,1.7s0-1.3,0-1.3c0,0,0,0.4,0,1.7c0,0.1,0,0.3,0,0.4c0,0.4,0.3,0.6,0.7,0.7c0,0,0.1,0,0.1,0
		c0.3,0,0.6-0.2,0.7-0.5c0.1-0.2,0.1-0.4,0.1-0.6c0-0.2,0-0.3,0-0.5c0,0.4,0,0.9,0,0.9c0,0,0-0.3,0-1c0-0.4,0.1-0.9,0.2-1.2
		c0.4-0.9,1.2-1.4,2.1-1.4c0.2,0,0.3,0,0.5,0.1c1.2,0.3,1.9,1.2,1.9,2.5C204.2,71.6,204.2,69.3,204.1,76.3z"/>
</g>
<g>
	<path class="st2" d="M119.2,123.2c0,5.4-2.3,8.1-6.9,8.1c-4.6,0-6.9-2.6-6.9-7.9v-1.5c0-4.3,2.3-6.8,6.8-7.6h0.6
		c0.4-0.5,0.6-1.1,0.6-1.7c0-0.9-0.4-1.3-1.4-1.3c-0.9,0-1.3,0.6-1.3,1.8h-3.6c0-3.4,1.6-5.1,4.8-5.1c3.2,0,4.9,1.6,4.9,4.7
		c-0.1,1-0.3,1.9-0.7,2.6c1,0.6,1.8,1.5,2.4,2.6c0.5,1.1,0.8,2.5,0.8,4.2V123.2z M115.2,122.2c0-3.1-0.9-4.7-2.8-4.7
		c-2,0-3.1,1.5-3.1,4.6v1.2c0,3.1,1,4.7,3,4.7c1.9,0,2.9-1.6,2.9-4.7C115.2,123.3,115.2,122.2,115.2,122.2z"/>
	<path class="st2" d="M134.4,123.8c0,5-2.1,7.5-6.3,7.5c-4.3,0-6.5-2.5-6.5-7.6v-1.8l0.8-3.9h4.1l-0.9,4.4v2.4
		c0,2.2,0.8,3.3,2.5,3.3c1.6,0,2.4-1.1,2.4-3.4v-3.3c0-2-0.9-3.9-2.8-5.9s-2.8-4.3-2.8-7.2h3.9c0,2.2,0.9,4.3,2.8,6.5
		c1.9,2.2,2.8,4.5,2.8,7V123.8z"/>
	<path class="st2" d="M149.6,124.1c0,4.8-2.1,7.1-6.2,7.1c-4.4,0-6.6-2.4-6.6-7.1v-2.2c0-4.7,2.1-7.1,6.4-7.1c0.5,0,1.4,0.1,2.7,0.4
		v-1.5c0-1.7-0.8-2.5-2.3-2.5c-1.5,0-2.2,0.6-2.3,2h-3.8c0-3.5,2-5.2,5.9-5.2c4.2,0,6.2,1.9,6.2,5.8L149.6,124.1L149.6,124.1z
		 M145.9,118.8c-1.1-0.3-1.9-0.5-2.4-0.5c-1.8,0-2.7,1.1-2.7,3.4v2.3c0,2.7,0.9,4,2.7,4c1.6,0,2.4-1.3,2.4-3.8L145.9,118.8
		L145.9,118.8z"/>
	<path class="st2" d="M172.1,121.3c0,3.6-1.1,6.8-3.4,9.6h-4.6c2.7-3.6,4.1-6.8,4.1-9.6v-6.9c0-2.1-0.7-3.2-2.2-3.2
		c-1.1,0-1.7,0.7-1.7,2.1v9.8h-3.9v-9.9c0-1.4-0.7-2-2.1-2c-1.2,0-1.8,1.1-1.8,3.2v6.9c0,2.8,1.2,6,3.6,9.6h-4.4
		c-2.1-2.8-3.2-6-3.2-9.6v-5.8c0-5,2-7.5,6-7.5c1.6,0,2.9,0.7,3.9,2c1-1.3,2.2-2,3.6-2c4.1,0,6.1,2.5,6.1,7.5L172.1,121.3
		L172.1,121.3z"/>
	<path class="st2" d="M187.5,124c0,4.8-2.1,7.3-6.4,7.3c-4.3,0-6.4-2.6-6.4-7.9v-0.9c0-5.3,2.1-7.9,6.4-7.9c0.7,0,1.6,0.1,2.7,0.5
		v-6.8h3.7V124z M183.7,118.6c-0.7-0.4-1.6-0.6-2.8-0.6c-1.6,0-2.3,1.5-2.3,4.4v1.1c0,2.9,0.8,4.4,2.3,4.4c1.8,0,2.8-1.4,2.8-4.3
		V118.6z"/>
	<path class="st2" d="M203.1,123.8c0,5-2.1,7.5-6.3,7.5c-4.3,0-6.5-2.5-6.5-7.6v-1.8l0.8-3.9h4.1l-0.9,4.4v2.4
		c0,2.2,0.8,3.3,2.5,3.3c1.6,0,2.4-1.1,2.4-3.4v-3.3c0-2-0.9-3.9-2.8-5.9c-1.9-1.9-2.8-4.3-2.8-7.2h3.9c0,2.2,0.9,4.3,2.8,6.5
		c1.9,2.2,2.8,4.5,2.8,7L203.1,123.8L203.1,123.8z"/>
	<path class="st2" d="M218.7,123.6c0,5.1-2.1,7.7-6.3,7.7c-4.3,0-6.5-2.5-6.5-7.6v-15.5h3.9v6.8c1.3-0.3,2.1-0.4,2.5-0.4
		c4.3,0,6.5,2.6,6.5,7.8L218.7,123.6L218.7,123.6z M214.8,121c0-2-0.9-3-2.6-3c-0.4,0-1.2,0.3-2.5,0.7v5.7c0,2.4,0.9,3.6,2.6,3.6
		c1.6,0,2.4-1.2,2.4-3.5L214.8,121L214.8,121z"/>
	<path class="st2" d="M233.9,124.5c0,4.5-2.2,6.8-6.5,6.8c-4.2,0-6.3-2.3-6.3-6.9l0.4-3.7h4.2l-0.7,4.5c0,1.9,0.8,2.9,2.4,2.9
		c1.8,0,2.7-1,2.7-2.9V113c0-1.2-0.8-1.7-2.3-1.7c-1.2,0-1.8,0.8-1.9,2.3l0.4,3.5h-4l-0.2-3.5c0-3.7,1.9-5.6,5.8-5.6
		c3.9,0,5.9,1.8,5.9,5.3L233.9,124.5L233.9,124.5z"/>
	<path class="st2" d="M249.4,122.9c0,5.6-2.1,8.4-6.4,8.4c-4.3,0-6.4-2.8-6.4-8.4v-0.8c0-4.2,1.6-6.7,4.9-7.5c0-1-0.2-1.7-0.6-2
		c-1.3-0.9-2-2.4-2-4.6h4.2c0,1.3,0.3,2.1,0.9,2.6c0.9,0.7,1.3,1.8,1.3,3.1l-0.1,1c2.8,0.9,4.2,3.3,4.2,7.4L249.4,122.9L249.4,122.9
		z M245.5,121.8c0-2.7-0.8-4-2.5-4c-1.6,0.1-2.4,1.5-2.4,4.3v1.1c0,3.3,0.8,4.9,2.4,4.9c1.7,0,2.5-1.6,2.5-4.8L245.5,121.8
		L245.5,121.8z"/>
	<path class="st2" d="M264.7,123.8c0,5-2.1,7.5-6.3,7.5c-4.3,0-6.5-2.5-6.5-7.6v-1.8l0.8-3.9h4.1l-0.9,4.4v2.4
		c0,2.2,0.8,3.3,2.5,3.3c1.6,0,2.4-1.1,2.4-3.4v-3.3c0-2-0.9-3.9-2.8-5.9c-1.9-1.9-2.8-4.3-2.8-7.2h3.9c0,2.2,0.9,4.3,2.8,6.5
		c1.9,2.2,2.8,4.5,2.8,7V123.8z"/>
</g>
<g>
	<path class="st2" d="M132.2,161v3.1h-12v-2.8l0.2-0.2c0.1-0.1,0.2-0.2,0.2-0.2h0c0.4-0.5,0.9-1,1.5-1.6c0.6-0.6,1.2-1.3,1.9-2
		c0.8-0.8,1.4-1.5,1.9-2c0.5-0.5,0.8-0.9,1-1.2c0.7-0.9,1.2-1.6,1.5-2.2c0.3-0.6,0.4-1.1,0.4-1.6c0-0.8-0.3-1.5-0.8-2
		c-0.6-0.5-1.3-0.8-2.2-0.8c-0.7,0-1.5,0.2-2.4,0.5c-0.9,0.3-1.9,0.8-3,1.5v-3.7c2.2-0.9,3.9-1.4,5.4-1.4c1.9,0,3.4,0.5,4.6,1.5
		c1.2,1.1,1.8,2.5,1.8,4.3c0,0.8-0.1,1.6-0.4,2.4c-0.1,0.4-0.3,0.8-0.6,1.2c-0.2,0.4-0.6,0.9-0.9,1.4c-0.1,0.1-0.3,0.3-0.5,0.6
		c-0.2,0.3-0.6,0.6-1,1.1c-0.4,0.5-1,1.1-1.6,1.8s-1.5,1.6-2.4,2.6H132.2z"/>
	<path class="st2" d="M144.8,161h3.8v-13.1c-0.3,0.1-0.7,0.1-1,0.2c-0.4,0.1-0.7,0.2-1.1,0.2c-0.4,0.1-0.7,0.2-1.1,0.2
		c-0.3,0.1-0.7,0.1-1,0.2v-3.3l4.6-1h2.8V161h3.8v3.1h-10.9V161z"/>
	<path class="st2" d="M171.4,149.5c0,0.9-0.2,1.7-0.6,2.4s-0.9,1.2-1.7,1.6c0.3,0.2,0.6,0.4,0.9,0.6s0.5,0.5,0.7,0.7
		c0.3,0.5,0.6,1,0.8,1.5c0.2,0.6,0.3,1.2,0.3,1.8c0,2-0.6,3.5-1.9,4.6c-1.3,1.1-3,1.6-5.3,1.6c-1.5,0-3.2-0.4-5.1-1.1v-3.7
		c0.8,0.5,1.7,0.9,2.5,1.2c0.9,0.3,1.7,0.4,2.5,0.4c1.3,0,2.3-0.3,3-0.8c0.7-0.5,1-1.3,1-2.4c0-0.9-0.3-1.7-1-2.2s-1.5-0.8-2.7-0.8
		h-2.5v-3.1h2.6c1,0,1.8-0.2,2.3-0.6c0.5-0.4,0.8-1,0.8-1.8c0-0.8-0.3-1.4-0.8-1.8c-0.5-0.4-1.3-0.6-2.4-0.6c-0.6,0-1.3,0.1-2.1,0.3
		c-0.8,0.2-1.7,0.5-2.8,0.9v-3.3c1-0.3,1.9-0.5,2.8-0.7c0.9-0.1,1.6-0.2,2.4-0.2c0.9,0,1.8,0.1,2.6,0.3c0.8,0.2,1.4,0.6,2,1.1v0
		C170.8,146.5,171.4,147.8,171.4,149.5z"/>
	<path class="st2" d="M183.9,161h3.8v-13.1c-0.3,0.1-0.7,0.1-1,0.2c-0.4,0.1-0.7,0.2-1.1,0.2c-0.4,0.1-0.7,0.2-1.1,0.2
		c-0.3,0.1-0.7,0.1-1,0.2v-3.3l4.6-1h2.8V161h3.8v3.1h-10.9V161z"/>
	<path class="st2" d="M199.2,144.5h10.2v3.1h-7.1v3.4c0.3-0.1,0.5-0.1,0.8-0.2c0.3,0,0.5-0.1,0.8-0.1c2,0,3.7,0.6,4.9,1.8
		c1.2,1.2,1.9,2.9,1.9,5c0,1.1-0.2,2-0.5,2.9c-0.3,0.8-0.8,1.6-1.4,2.2c-1.3,1.2-3,1.8-5.2,1.8c-0.8,0-1.5-0.1-2.4-0.2
		c-0.8-0.2-1.7-0.4-2.7-0.7v-3.7c0.9,0.5,1.8,0.9,2.6,1.2s1.6,0.4,2.4,0.4c1.2,0,2.2-0.3,2.9-1c0.7-0.7,1-1.6,1-2.7
		c0-1.1-0.3-2-1-2.7c-0.7-0.7-1.7-1-2.9-1c-0.6,0-1.2,0.1-1.9,0.3c-0.7,0.2-1.5,0.5-2.3,0.9V144.5z"/>
	<path class="st2" d="M223,161h3.8v-13.1c-0.3,0.1-0.7,0.1-1,0.2c-0.4,0.1-0.7,0.2-1.1,0.2c-0.4,0.1-0.7,0.2-1.1,0.2
		c-0.3,0.1-0.7,0.1-1,0.2v-3.3l4.6-1h2.8V161h3.8v3.1H223V161z"/>
	<path class="st2" d="M238.3,144.5h10.2v3.1h-7.1v3.4c0.3-0.1,0.5-0.1,0.8-0.2c0.3,0,0.5-0.1,0.8-0.1c2,0,3.7,0.6,4.9,1.8
		c1.2,1.2,1.9,2.9,1.9,5c0,1.1-0.2,2-0.5,2.9c-0.3,0.8-0.8,1.6-1.4,2.2c-1.3,1.2-3,1.8-5.2,1.8c-0.8,0-1.5-0.1-2.4-0.2
		c-0.8-0.2-1.7-0.4-2.7-0.7v-3.7c0.9,0.5,1.8,0.9,2.6,1.2s1.6,0.4,2.4,0.4c1.2,0,2.2-0.3,2.9-1c0.7-0.7,1-1.6,1-2.7
		c0-1.1-0.3-2-1-2.7c-0.7-0.7-1.7-1-2.9-1c-0.6,0-1.2,0.1-1.9,0.3c-0.7,0.2-1.5,0.5-2.3,0.9V144.5z"/>
</g>
</svg>
