<?xml version="1.0" encoding="utf-8"?>
<!-- Generator: Adobe Illustrator 16.0.0, SVG Export Plug-In . SVG Version: 6.00 Build 0)  -->
<!DOCTYPE svg PUBLIC "-//W3C//DTD SVG 1.1//EN" "http://www.w3.org/Graphics/SVG/1.1/DTD/svg11.dtd">
<svg version="1.1" id="Layer_1" xmlns="http://www.w3.org/2000/svg" xmlns:xlink="http://www.w3.org/1999/xlink" x="0px" y="0px"
	 width="47px" height="41px" viewBox="0 0 47 41" enable-background="new 0 0 47 41" xml:space="preserve">
<g>
	<path fill="#E06B3D" d="M2.5,36h42c1.381,0,2.5,1.119,2.5,2.5S45.881,41,44.5,41h-42C1.119,41,0,39.881,0,38.5S1.119,36,2.5,36z"/>
	<path fill="#E06B3D" d="M2.5,24h27c1.381,0,2.5,1.119,2.5,2.5S30.881,29,29.5,29h-27C1.119,29,0,27.881,0,26.5S1.119,24,2.5,24z"/>
	<path fill="#E06B3D" d="M2.5,12h42c1.381,0,2.5,1.119,2.5,2.5S45.881,17,44.5,17h-42C1.119,17,0,15.881,0,14.5S1.119,12,2.5,12z"/>
	<path fill="#E06B3D" d="M2.5,0h17C20.881,0,22,1.119,22,2.5S20.881,5,19.5,5h-17C1.119,5,0,3.881,0,2.5S1.119,0,2.5,0z"/>
</g>
</svg>
