<?xml version="1.0" encoding="utf-8"?>
<!-- Generator: Adobe Illustrator 16.0.0, SVG Export Plug-In . SVG Version: 6.00 Build 0)  -->
<!DOCTYPE svg PUBLIC "-//W3C//DTD SVG 1.1//EN" "http://www.w3.org/Graphics/SVG/1.1/DTD/svg11.dtd">
<svg version="1.1" id="Layer_1" xmlns="http://www.w3.org/2000/svg" xmlns:xlink="http://www.w3.org/1999/xlink" x="0px" y="0px"
	 width="70px" height="71px" viewBox="0 0 70 71" enable-background="new 0 0 70 71" xml:space="preserve">
<g>
	<g>
		<ellipse fill="#FFFFFF" cx="35" cy="35.5" rx="34.553" ry="34.999"/>
		<path fill="#D1D1D1" d="M35,70.891c-19.268,0-34.944-15.876-34.944-35.39C0.056,15.986,15.732,0.109,35,0.109
			c19.269,0,34.944,15.876,34.944,35.391C69.944,55.015,54.269,70.891,35,70.891z M35,0.892C16.164,0.892,0.838,16.417,0.838,35.5
			c0,19.083,15.325,34.607,34.162,34.607c18.837,0,34.161-15.524,34.161-34.607C69.161,16.417,53.837,0.892,35,0.892z"/>
	</g>
	<circle fill="#3895CE" cx="35" cy="35.5" r="6.033"/>
	<g transform="translate(0,-1036.3622)">
		<g>
			<path fill="#3F3F3F" d="M33.643,1052.893v2.773c-7.896,0.653-14.204,6.955-14.859,14.84H16v2.711h2.783
				c0.657,7.882,6.965,14.181,14.859,14.835v2.779h2.715v-2.779c7.895-0.654,14.201-6.953,14.859-14.835H54v-2.711h-2.783
				c-0.655-7.885-6.962-14.187-14.859-14.84v-2.773H33.643z M35,1058.313c7.512,0,13.571,6.05,13.571,13.55
				c0,7.499-6.06,13.549-13.571,13.549s-13.571-6.051-13.571-13.549C21.429,1064.363,27.488,1058.313,35,1058.313z M35,1063.732
				c-4.48,0-8.143,3.657-8.143,8.131c0,4.473,3.662,8.127,8.143,8.127s8.143-3.654,8.143-8.127
				C43.143,1067.389,39.48,1063.732,35,1063.732z M35,1066.442c3.014,0,5.429,2.411,5.429,5.421c0,3.008-2.415,5.42-5.429,5.42
				s-5.429-2.412-5.429-5.42C29.571,1068.853,31.986,1066.442,35,1066.442z"/>
		</g>
	</g>
</g>
</svg>
