<?xml version="1.0" encoding="utf-8"?>
<!-- Generator: Adobe Illustrator 16.0.0, SVG Export Plug-In . SVG Version: 6.00 Build 0)  -->
<!DOCTYPE svg PUBLIC "-//W3C//DTD SVG 1.1//EN" "http://www.w3.org/Graphics/SVG/1.1/DTD/svg11.dtd">
<svg version="1.1" id="Layer_1" xmlns="http://www.w3.org/2000/svg"  x="0px" y="0px"
	 width="31px" height="40px" viewBox="0 0 31 40" enable-background="new 0 0 31 40" xml:space="preserve">
<g>
	<g>
		<path fill="#e8b427" d="M15.5,0.509c-8.271,0-15,6.851-15,15.271c0,5.79,3.857,11.854,7.093,15.922
			c2.648,3.329,6.941,7.699,7.886,7.781l0.138,0.008c1.011,0,5.47-4.701,7.869-7.749C26.686,27.676,30.5,21.605,30.5,15.78
			C30.5,7.36,23.771,0.509,15.5,0.509z"/>
		<path fill="#20AF50" d="M15.618,40l-0.167-0.009c-1.349-0.116-6.083-5.249-8.247-7.969C3.918,27.89,0,21.717,0,15.78
			C0,7.079,6.954,0,15.5,0C24.047,0,31,7.079,31,15.78c0,5.972-3.874,12.15-7.124,16.281C22.499,33.812,17.147,40,15.618,40z
			 M15.5,1.018C7.505,1.018,1,7.64,1,15.78c0,5.64,3.797,11.598,6.982,15.603c2.854,3.587,6.798,7.442,7.549,7.594l0.082,0.005
			c0.824-0.15,4.865-4.229,7.483-7.558C26.246,27.42,30,21.457,30,15.78C30,7.64,23.496,1.018,15.5,1.018z"/>
	</g>
	<path fill="#FFFFFF" d="M15.5,6.365c-4.971,0-9,4.104-9,9.166c0,1.084,0.185,2.124,0.525,3.091c1.245,3.539,4.569,6.07,8.474,6.07
		c3.733,0,6.935-2.311,8.296-5.604c0.453-1.095,0.705-2.296,0.705-3.557C24.5,10.469,20.471,6.365,15.5,6.365z"/>
</g>
</svg>
